<svg xmlns="http://www.w3.org/2000/svg" width="81" height="156" viewBox="0 0 81 156">
  <g id="Group_5060" data-name="Group 5060" transform="translate(0.12 -0.471)">
    <path id="Rectangle_6676" data-name="Rectangle 6676" d="M0,0H61A20,20,0,0,1,81,20V136a20,20,0,0,1-20,20H0a0,0,0,0,1,0,0V0A0,0,0,0,1,0,0Z" transform="translate(-0.12 0.471)" fill="#eaeaea"/>
    <g id="Group_5059" data-name="Group 5059" transform="translate(26.133 23.407)">
      <g id="Group_4839" data-name="Group 4839" transform="translate(30.2 79.973) rotate(90)">
        <g id="Group_4655" data-name="Group 4655" transform="translate(0 0)">
          <g id="Group_4226" data-name="Group 4226">
            <path id="Path_2151" data-name="Path 2151" d="M1.574,28.621l15.893-.278s11.495-2.495,10.976-15.795c0,0-2-10.88-12.362-12.548L.739.606S-1.042,1.884.926,3.871l.64,21.48A2.151,2.151,0,0,0,1.574,28.621Z" transform="translate(0.103 0.126)" fill="#fff" stroke="#b2b2b2" stroke-miterlimit="10" stroke-width="1"/>
            <g id="LWPOLYLINE" transform="translate(1.331 4.505)">
              <g id="Group_4219" data-name="Group 4219">
                <g id="Group_4218" data-name="Group 4218">
                  <path id="Path_2152" data-name="Path 2152" d="M.076,21.118A.171.171,0,0,1,0,20.981a.169.169,0,0,1,.164-.174l13.106-.39A10.575,10.575,0,0,0,17.55.322.161.161,0,0,1,17.471.1.168.168,0,0,1,17.7.017,10.913,10.913,0,0,1,13.28,20.755l-13.106.39A.165.165,0,0,1,.076,21.118Z" fill="#fff" stroke="#b2b2b2" stroke-miterlimit="10" stroke-width="1"/>
                </g>
              </g>
            </g>
            <g id="ARC" transform="translate(13.797 3.438)">
              <g id="Group_4221" data-name="Group 4221">
                <g id="Group_4220" data-name="Group 4220">
                  <path id="Path_2153" data-name="Path 2153" d="M.076.315A.169.169,0,0,1,.162,0C.232,0,.3,0,.371,0A.171.171,0,0,1,.542.167.169.169,0,0,1,.377.338c-.067,0-.135,0-.2,0A.168.168,0,0,1,.076.315Z" fill="#fff" stroke="#b2b2b2" stroke-miterlimit="10" stroke-width="1"/>
                </g>
              </g>
            </g>
            <g id="LINE" transform="translate(0.691 3.443)">
              <g id="Group_4223" data-name="Group 4223">
                <g id="Group_4222" data-name="Group 4222">
                  <path id="Path_2154" data-name="Path 2154" d="M.076.7A.171.171,0,0,1,0,.564.169.169,0,0,1,.164.39L13.27,0a.169.169,0,1,1,.01.337L.174.728A.173.173,0,0,1,.076.7Z" fill="#fff" stroke="#b2b2b2" stroke-miterlimit="10" stroke-width="1"/>
                </g>
              </g>
            </g>
            <g id="LWPOLYLINE-2" data-name="LWPOLYLINE">
              <g id="Group_4225" data-name="Group 4225">
                <g id="Group_4224" data-name="Group 4224">
                  <path id="Path_2155" data-name="Path 2155" d="M1.51,29.06a.183.183,0,0,1-.033-.027,2.8,2.8,0,0,1-.147-3.608L.693,4.068A2.8,2.8,0,0,1,.626.46.168.168,0,0,1,.753.4L13.86.006A14.352,14.352,0,0,1,14.713,28.7l-13.107.39A.168.168,0,0,1,1.51,29.06ZM.841.732A2.463,2.463,0,0,0,.985,3.888.163.163,0,0,1,1.029,4l.64,21.48a.169.169,0,0,1-.038.11,2.466,2.466,0,0,0,.046,3.16L14.7,28.36A14.014,14.014,0,1,0,13.868.344Z" fill="#fff" stroke="#b2b2b2" stroke-miterlimit="10" stroke-width="1"/>
                </g>
              </g>
            </g>
          </g>
          <ellipse id="Ellipse_352" data-name="Ellipse 352" cx="1.378" cy="5.235" rx="1.378" ry="5.235" transform="translate(15.635 9.536)" fill="#fff" stroke="#b2b2b2" stroke-miterlimit="10" stroke-width="1"/>
        </g>
      </g>
      <g id="Group_4840" data-name="Group 4840" transform="translate(31.409 39.21) rotate(90)">
        <circle id="Ellipse_381" data-name="Ellipse 381" cx="15.705" cy="15.705" r="15.705" transform="translate(0)" fill="#fff" stroke="#b2b2b2" stroke-miterlimit="10" stroke-width="2"/>
        <g id="Group_4657" data-name="Group 4657" transform="translate(7.026 8.949)">
          <path id="Path_2191" data-name="Path 2191" d="M0,1.089s2.905,4.579,7.242,1.8C7.242,2.891,4.9-2.158,0,1.089Z" transform="translate(0 3.212)" fill="#fff" stroke="#b2b2b2" stroke-miterlimit="10" stroke-width="2"/>
          <path id="Path_2192" data-name="Path 2192" d="M.036,0S-.693,5.836,4.413,6.566C4.413,6.566,5.872.73.036,0Z" transform="translate(4.523 0.554)" fill="#fff" stroke="#b2b2b2" stroke-miterlimit="10" stroke-width="2"/>
          <path id="Path_2193" data-name="Path 2193" d="M0,2.245s4.226,3.4,7.437-.631C7.437,1.614,3.587-2.408,0,2.245Z" transform="translate(2.108 6.204)" fill="#fff" stroke="#b2b2b2" stroke-miterlimit="10" stroke-width="2"/>
          <path id="Path_2194" data-name="Path 2194" d="M1.5,7.41S5.681,3.96,2.387,0C2.387,0-2.331,2.955,1.5,7.41Z" transform="translate(6.15 7.335)" fill="#fff" stroke="#b2b2b2" stroke-miterlimit="10" stroke-width="2"/>
          <path id="Path_2195" data-name="Path 2195" d="M0,1.793s3.786,3.882,7.459.27C7.459,2.063,4.122-2.393,0,1.793Z" transform="translate(8.656 4.742)" fill="#fff" stroke="#b2b2b2" stroke-miterlimit="10" stroke-width="2"/>
          <path id="Path_2196" data-name="Path 2196" d="M.172,6.064S5.5,5.057,4.521,0C4.521,0-1.038.316.172,6.064Z" transform="translate(10.097)" fill="#fff" stroke="#b2b2b2" stroke-miterlimit="10" stroke-width="2"/>
          <path id="Path_2197" data-name="Path 2197" d="M0,.09S.685,5.469,5.791,4.8C5.791,4.8,5.812-.77,0,.09Z" transform="translate(9.467 7.11)" fill="#fff" stroke="#b2b2b2" stroke-miterlimit="10" stroke-width="2"/>
        </g>
      </g>
      <g id="Group_4841" data-name="Group 4841" transform="translate(30.2 0) rotate(90)">
        <g id="Group_4655-2" data-name="Group 4655" transform="translate(0 0)">
          <g id="Group_4226-2" data-name="Group 4226">
            <path id="Path_2151-2" data-name="Path 2151" d="M26.886,28.62l-15.893-.278S-.5,25.848.017,12.548c0,0,2-10.88,12.362-12.548L27.721.606s1.781,1.279-.187,3.265l-.64,21.479A2.151,2.151,0,0,1,26.886,28.62Z" transform="translate(0.075 0.126)" fill="#fff" stroke="#b2b2b2" stroke-miterlimit="10" stroke-width="1"/>
            <g id="LWPOLYLINE-3" data-name="LWPOLYLINE" transform="translate(3.438 4.505)">
              <g id="Group_4219-2" data-name="Group 4219" transform="translate(0)">
                <g id="Group_4218-2" data-name="Group 4218">
                  <path id="Path_2152-2" data-name="Path 2152" d="M23.793,21.118a.171.171,0,0,0,.076-.137.169.169,0,0,0-.164-.174L10.6,20.417A10.575,10.575,0,0,1,6.319.322.161.161,0,0,0,6.4.1.168.168,0,0,0,6.174.017,10.913,10.913,0,0,0,10.59,20.755l13.106.39A.166.166,0,0,0,23.793,21.118Z" fill="#fff" stroke="#b2b2b2" stroke-miterlimit="10" stroke-width="1"/>
                </g>
              </g>
            </g>
            <g id="ARC-2" data-name="ARC" transform="translate(14.298 3.438)">
              <g id="Group_4221-2" data-name="Group 4221" transform="translate(0)">
                <g id="Group_4220-2" data-name="Group 4220">
                  <path id="Path_2153-2" data-name="Path 2153" d="M.466.315A.169.169,0,0,0,.38,0C.31,0,.241,0,.172,0A.171.171,0,0,0,0,.167.169.169,0,0,0,.166.338c.067,0,.135,0,.2,0A.168.168,0,0,0,.466.315Z" fill="#fff" stroke="#b2b2b2" stroke-miterlimit="10" stroke-width="1"/>
                </g>
              </g>
            </g>
            <g id="LINE-2" data-name="LINE" transform="translate(14.503 3.443)">
              <g id="Group_4223-2" data-name="Group 4223" transform="translate(0)">
                <g id="Group_4222-2" data-name="Group 4222">
                  <path id="Path_2154-2" data-name="Path 2154" d="M13.367.7a.171.171,0,0,0,.076-.137A.169.169,0,0,0,13.28.39L.174,0a.169.169,0,0,0-.01.337L13.27.728A.173.173,0,0,0,13.367.7Z" fill="#fff" stroke="#b2b2b2" stroke-miterlimit="10" stroke-width="1"/>
                </g>
              </g>
            </g>
            <g id="LWPOLYLINE-4" data-name="LWPOLYLINE">
              <g id="Group_4225-2" data-name="Group 4225">
                <g id="Group_4224-2" data-name="Group 4224">
                  <path id="Path_2155-2" data-name="Path 2155" d="M27.128,29.06a.183.183,0,0,0,.033-.027,2.8,2.8,0,0,0,.147-3.608l.636-21.357A2.8,2.8,0,0,0,28.012.46.168.168,0,0,0,27.885.4L14.778.006A14.352,14.352,0,0,0,13.925,28.7l13.107.39A.169.169,0,0,0,27.128,29.06ZM27.8.732a2.463,2.463,0,0,1-.143,3.156A.163.163,0,0,0,27.609,4l-.64,21.479a.168.168,0,0,0,.038.11,2.466,2.466,0,0,1-.046,3.16l-13.027-.387A14.014,14.014,0,1,1,14.769.344Z" fill="#fff" stroke="#b2b2b2" stroke-miterlimit="10" stroke-width="1"/>
                </g>
              </g>
            </g>
          </g>
          <ellipse id="Ellipse_352-2" data-name="Ellipse 352" cx="1.378" cy="5.235" rx="1.378" ry="5.235" transform="translate(10.247 9.536)" fill="#fff" stroke="#b2b2b2" stroke-miterlimit="10" stroke-width="1"/>
        </g>
      </g>
    </g>
  </g>
</svg>
