<svg xmlns="http://www.w3.org/2000/svg" width="150" height="150" viewBox="0 0 150 150">
  <g id="Group_5031" data-name="Group 5031" transform="translate(0.114 -0.4)">
    <circle id="Ellipse_383" data-name="Ellipse 383" cx="75" cy="75" r="75" transform="translate(-0.114 0.4)" fill="#eaeaea"/>
    <g id="Group_4850" data-name="Group 4850" transform="translate(100.454 60.701)">
      <g id="Group_4655" data-name="Group 4655">
        <g id="Group_4226" data-name="Group 4226" transform="translate(0)">
          <path id="Path_2151" data-name="Path 2151" d="M428.139,287.025l15.893-.278s11.495-2.495,10.976-15.795c0,0-2-10.88-12.362-12.548l-15.342.606s-1.781,1.279.187,3.265l.64,21.48A2.151,2.151,0,0,0,428.139,287.025Z" transform="translate(-426.463 -258.278)" fill="#fff" stroke="#b2b2b2" stroke-miterlimit="10" stroke-width="1"/>
          <g id="LWPOLYLINE" transform="translate(1.331 4.505)">
            <g id="Group_4219" data-name="Group 4219">
              <g id="Group_4218" data-name="Group 4218">
                <path id="Path_2152" data-name="Path 2152" d="M427.9,284.012a.171.171,0,0,1-.076-.137.169.169,0,0,1,.164-.174l13.106-.39a10.575,10.575,0,0,0,4.281-20.1.161.161,0,0,1-.079-.226.168.168,0,0,1,.224-.079,10.913,10.913,0,0,1-4.416,20.738l-13.106.39A.165.165,0,0,1,427.9,284.012Z" transform="translate(-427.825 -262.894)" fill="#fff" stroke="#b2b2b2" stroke-miterlimit="10" stroke-width="1"/>
              </g>
            </g>
          </g>
          <g id="ARC" transform="translate(13.797 3.438)">
            <g id="Group_4221" data-name="Group 4221">
              <g id="Group_4220" data-name="Group 4220">
                <path id="Path_2153" data-name="Path 2153" d="M440.683,262.115a.169.169,0,0,1,.086-.31c.07,0,.139,0,.209,0a.171.171,0,0,1,.172.167.169.169,0,0,1-.166.172c-.067,0-.135,0-.2,0A.169.169,0,0,1,440.683,262.115Z" transform="translate(-440.607 -261.8)" fill="#fff" stroke="#b2b2b2" stroke-miterlimit="10" stroke-width="1"/>
              </g>
            </g>
          </g>
          <g id="LINE" transform="translate(0.691 3.443)">
            <g id="Group_4223" data-name="Group 4223">
              <g id="Group_4222" data-name="Group 4222">
                <path id="Path_2154" data-name="Path 2154" d="M427.245,262.505a.171.171,0,0,1-.076-.137.169.169,0,0,1,.164-.174l13.106-.39a.169.169,0,0,1,.01.337l-13.106.39A.173.173,0,0,1,427.245,262.505Z" transform="translate(-427.169 -261.805)" fill="#fff" stroke="#b2b2b2" stroke-miterlimit="10" stroke-width="1"/>
              </g>
            </g>
          </g>
          <g id="LWPOLYLINE-2" data-name="LWPOLYLINE">
            <g id="Group_4225" data-name="Group 4225">
              <g id="Group_4224" data-name="Group 4224">
                <path id="Path_2155" data-name="Path 2155" d="M427.97,287.335a.183.183,0,0,1-.033-.027,2.8,2.8,0,0,1-.147-3.608l-.636-21.357a2.8,2.8,0,0,1-.067-3.609.168.168,0,0,1,.127-.063l13.107-.39a14.352,14.352,0,0,1,.853,28.691l-13.107.39A.168.168,0,0,1,427.97,287.335Zm-.668-28.328a2.463,2.463,0,0,0,.143,3.156.163.163,0,0,1,.044.109l.64,21.48a.169.169,0,0,1-.038.11,2.466,2.466,0,0,0,.046,3.16l13.027-.387a14.014,14.014,0,1,0-.835-28.016Z" transform="translate(-426.46 -258.274)" fill="#fff" stroke="#b2b2b2" stroke-miterlimit="10" stroke-width="1"/>
              </g>
            </g>
          </g>
        </g>
        <ellipse id="Ellipse_352" data-name="Ellipse 352" cx="1.378" cy="5.235" rx="1.378" ry="5.235" transform="translate(15.635 9.536)" fill="#fff" stroke="#b2b2b2" stroke-miterlimit="10" stroke-width="1"/>
      </g>
    </g>
    <g id="Group_4851" data-name="Group 4851" transform="translate(59.691 59.492)">
      <circle id="Ellipse_381" data-name="Ellipse 381" cx="15.705" cy="15.705" r="15.705" transform="translate(0)" fill="#fff" stroke="#b2b2b2" stroke-miterlimit="10" stroke-width="2"/>
      <g id="Group_4657" data-name="Group 4657" transform="translate(7.026 8.949)">
        <path id="Path_2191" data-name="Path 2191" d="M396.868,270.593s2.905,4.579,7.242,1.8C404.11,272.395,401.764,267.346,396.868,270.593Z" transform="translate(-396.868 -266.292)" fill="#fff" stroke="#b2b2b2" stroke-miterlimit="10" stroke-width="2"/>
        <path id="Path_2192" data-name="Path 2192" d="M401.542,266.779s-.729,5.836,4.377,6.566C405.919,273.345,407.378,267.509,401.542,266.779Z" transform="translate(-396.983 -266.225)" fill="#fff" stroke="#b2b2b2" stroke-miterlimit="10" stroke-width="2"/>
        <path id="Path_2193" data-name="Path 2193" d="M399.029,274.817s4.226,3.4,7.437-.631C406.466,274.186,402.616,270.164,399.029,274.817Z" transform="translate(-396.921 -266.368)" fill="#fff" stroke="#b2b2b2" stroke-miterlimit="10" stroke-width="2"/>
        <path id="Path_2194" data-name="Path 2194" d="M404.673,281.142s4.182-3.451.889-7.41C405.562,273.732,400.843,276.687,404.673,281.142Z" transform="translate(-397.024 -266.397)" fill="#fff" stroke="#b2b2b2" stroke-miterlimit="10" stroke-width="2"/>
        <path id="Path_2195" data-name="Path 2195" d="M405.743,272.866s3.786,3.882,7.459.27C413.2,273.136,409.865,268.68,405.743,272.866Z" transform="translate(-397.087 -266.331)" fill="#fff" stroke="#b2b2b2" stroke-miterlimit="10" stroke-width="2"/>
        <path id="Path_2196" data-name="Path 2196" d="M407.394,272.275s5.327-1.007,4.349-6.064C411.742,266.211,406.183,266.527,407.394,272.275Z" transform="translate(-397.124 -266.211)" fill="#fff" stroke="#b2b2b2" stroke-miterlimit="10" stroke-width="2"/>
        <path id="Path_2197" data-name="Path 2197" d="M406.575,273.592s.685,5.379,5.791,4.708C412.366,278.3,412.387,272.732,406.575,273.592Z" transform="translate(-397.108 -266.391)" fill="#fff" stroke="#b2b2b2" stroke-miterlimit="10" stroke-width="2"/>
      </g>
    </g>
    <g id="Group_4852" data-name="Group 4852" transform="translate(20.481 60.701)">
      <g id="Group_4655-2" data-name="Group 4655" transform="translate(0 0)">
        <g id="Group_4226-2" data-name="Group 4226">
          <path id="Path_2151-2" data-name="Path 2151" d="M453.452,287.024l-15.893-.278s-11.495-2.495-10.976-15.795c0,0,2-10.88,12.362-12.548l15.342.606s1.781,1.279-.187,3.265l-.64,21.479A2.151,2.151,0,0,1,453.452,287.024Z" transform="translate(-426.49 -258.278)" fill="#fff" stroke="#b2b2b2" stroke-miterlimit="10" stroke-width="1"/>
          <g id="LWPOLYLINE-3" data-name="LWPOLYLINE" transform="translate(3.438 4.505)">
            <g id="Group_4219-2" data-name="Group 4219" transform="translate(0)">
              <g id="Group_4218-2" data-name="Group 4218">
                <path id="Path_2152-2" data-name="Path 2152" d="M451.618,284.012a.171.171,0,0,0,.076-.137.169.169,0,0,0-.164-.174l-13.106-.39a10.575,10.575,0,0,1-4.281-20.1.161.161,0,0,0,.079-.226.168.168,0,0,0-.224-.079,10.913,10.913,0,0,0,4.416,20.738l13.106.39A.166.166,0,0,0,451.618,284.012Z" transform="translate(-427.825 -262.894)" fill="#fff" stroke="#b2b2b2" stroke-miterlimit="10" stroke-width="1"/>
              </g>
            </g>
          </g>
          <g id="ARC-2" data-name="ARC" transform="translate(14.298 3.438)">
            <g id="Group_4221-2" data-name="Group 4221" transform="translate(0)">
              <g id="Group_4220-2" data-name="Group 4220">
                <path id="Path_2153-2" data-name="Path 2153" d="M441.073,262.115a.169.169,0,0,0-.086-.31c-.07,0-.139,0-.209,0a.171.171,0,0,0-.172.167.169.169,0,0,0,.166.172c.067,0,.135,0,.2,0A.168.168,0,0,0,441.073,262.115Z" transform="translate(-440.607 -261.8)" fill="#fff" stroke="#b2b2b2" stroke-miterlimit="10" stroke-width="1"/>
              </g>
            </g>
          </g>
          <g id="LINE-2" data-name="LINE" transform="translate(14.503 3.443)">
            <g id="Group_4223-2" data-name="Group 4223" transform="translate(0)">
              <g id="Group_4222-2" data-name="Group 4222" transform="translate(0)">
                <path id="Path_2154-2" data-name="Path 2154" d="M440.536,262.505a.171.171,0,0,0,.076-.137.169.169,0,0,0-.164-.174l-13.106-.39a.169.169,0,1,0-.01.337l13.106.39A.173.173,0,0,0,440.536,262.505Z" transform="translate(-427.169 -261.805)" fill="#fff" stroke="#b2b2b2" stroke-miterlimit="10" stroke-width="1"/>
              </g>
            </g>
          </g>
          <g id="LWPOLYLINE-4" data-name="LWPOLYLINE">
            <g id="Group_4225-2" data-name="Group 4225">
              <g id="Group_4224-2" data-name="Group 4224">
                <path id="Path_2155-2" data-name="Path 2155" d="M453.589,287.334a.183.183,0,0,0,.033-.027,2.8,2.8,0,0,0,.147-3.608l.636-21.357a2.8,2.8,0,0,0,.067-3.608.168.168,0,0,0-.127-.063l-13.107-.39a14.352,14.352,0,0,0-.853,28.691l13.107.39A.169.169,0,0,0,453.589,287.334Zm.668-28.328a2.463,2.463,0,0,1-.143,3.156.163.163,0,0,0-.044.109l-.64,21.479a.168.168,0,0,0,.038.11,2.466,2.466,0,0,1-.046,3.16l-13.027-.387a14.014,14.014,0,1,1,.835-28.016Z" transform="translate(-426.46 -258.274)" fill="#fff" stroke="#b2b2b2" stroke-miterlimit="10" stroke-width="1"/>
              </g>
            </g>
          </g>
        </g>
        <ellipse id="Ellipse_352-2" data-name="Ellipse 352" cx="1.378" cy="5.235" rx="1.378" ry="5.235" transform="translate(10.247 9.536)" fill="#fff" stroke="#b2b2b2" stroke-miterlimit="10" stroke-width="1"/>
      </g>
    </g>
    <g id="Group_4853" data-name="Group 4853" transform="translate(60.243 49.577) rotate(-90)">
      <g id="Group_4655-3" data-name="Group 4655" transform="translate(0 0)">
        <g id="Group_4226-3" data-name="Group 4226">
          <path id="Path_2151-3" data-name="Path 2151" d="M1.574,28.621l15.893-.278s11.495-2.495,10.976-15.795c0,0-2-10.88-12.362-12.548L.739.606S-1.042,1.884.926,3.871l.64,21.48A2.151,2.151,0,0,0,1.574,28.621Z" transform="translate(0.103 0.126)" fill="#fff" stroke="#b2b2b2" stroke-miterlimit="10" stroke-width="1"/>
          <g id="LWPOLYLINE-5" data-name="LWPOLYLINE" transform="translate(1.331 4.505)">
            <g id="Group_4219-3" data-name="Group 4219">
              <g id="Group_4218-3" data-name="Group 4218">
                <path id="Path_2152-3" data-name="Path 2152" d="M.076,21.118A.171.171,0,0,1,0,20.981a.169.169,0,0,1,.164-.174l13.106-.39A10.575,10.575,0,0,0,17.55.322.161.161,0,0,1,17.471.1.168.168,0,0,1,17.7.017,10.913,10.913,0,0,1,13.28,20.755l-13.106.39A.165.165,0,0,1,.076,21.118Z" fill="#fff" stroke="#b2b2b2" stroke-miterlimit="10" stroke-width="1"/>
              </g>
            </g>
          </g>
          <g id="ARC-3" data-name="ARC" transform="translate(13.797 3.438)">
            <g id="Group_4221-3" data-name="Group 4221">
              <g id="Group_4220-3" data-name="Group 4220">
                <path id="Path_2153-3" data-name="Path 2153" d="M.076.315A.169.169,0,0,1,.162,0C.232,0,.3,0,.371,0A.171.171,0,0,1,.542.167.169.169,0,0,1,.377.338c-.067,0-.135,0-.2,0A.168.168,0,0,1,.076.315Z" fill="#fff" stroke="#b2b2b2" stroke-miterlimit="10" stroke-width="1"/>
              </g>
            </g>
          </g>
          <g id="LINE-3" data-name="LINE" transform="translate(0.691 3.443)">
            <g id="Group_4223-3" data-name="Group 4223">
              <g id="Group_4222-3" data-name="Group 4222">
                <path id="Path_2154-3" data-name="Path 2154" d="M.076.7A.171.171,0,0,1,0,.564.169.169,0,0,1,.164.39L13.27,0a.169.169,0,1,1,.01.337L.174.728A.173.173,0,0,1,.076.7Z" fill="#fff" stroke="#b2b2b2" stroke-miterlimit="10" stroke-width="1"/>
              </g>
            </g>
          </g>
          <g id="LWPOLYLINE-6" data-name="LWPOLYLINE">
            <g id="Group_4225-3" data-name="Group 4225">
              <g id="Group_4224-3" data-name="Group 4224">
                <path id="Path_2155-3" data-name="Path 2155" d="M1.51,29.06a.183.183,0,0,1-.033-.027,2.8,2.8,0,0,1-.147-3.608L.693,4.068A2.8,2.8,0,0,1,.626.46.168.168,0,0,1,.753.4L13.86.006A14.352,14.352,0,0,1,14.713,28.7l-13.107.39A.168.168,0,0,1,1.51,29.06ZM.841.732A2.463,2.463,0,0,0,.985,3.888.163.163,0,0,1,1.029,4l.64,21.48a.169.169,0,0,1-.038.11,2.466,2.466,0,0,0,.046,3.16L14.7,28.36A14.014,14.014,0,1,0,13.868.344Z" fill="#fff" stroke="#b2b2b2" stroke-miterlimit="10" stroke-width="1"/>
              </g>
            </g>
          </g>
        </g>
        <ellipse id="Ellipse_352-3" data-name="Ellipse 352" cx="1.378" cy="5.235" rx="1.378" ry="5.235" transform="translate(15.635 9.536)" fill="#fff" stroke="#b2b2b2" stroke-miterlimit="10" stroke-width="1"/>
      </g>
    </g>
    <g id="Group_4854" data-name="Group 4854" transform="translate(60.243 129.55) rotate(-90)">
      <g id="Group_4655-4" data-name="Group 4655" transform="translate(0 0)">
        <g id="Group_4226-4" data-name="Group 4226">
          <path id="Path_2151-4" data-name="Path 2151" d="M26.886,28.62l-15.893-.278S-.5,25.848.017,12.548c0,0,2-10.88,12.362-12.548L27.721.606s1.781,1.279-.187,3.265l-.64,21.479A2.151,2.151,0,0,1,26.886,28.62Z" transform="translate(0.075 0.126)" fill="#fff" stroke="#b2b2b2" stroke-miterlimit="10" stroke-width="1"/>
          <g id="LWPOLYLINE-7" data-name="LWPOLYLINE" transform="translate(3.438 4.505)">
            <g id="Group_4219-4" data-name="Group 4219" transform="translate(0)">
              <g id="Group_4218-4" data-name="Group 4218" transform="translate(0)">
                <path id="Path_2152-4" data-name="Path 2152" d="M23.793,21.118a.171.171,0,0,0,.076-.137.169.169,0,0,0-.164-.174L10.6,20.417A10.575,10.575,0,0,1,6.319.322.161.161,0,0,0,6.4.1.168.168,0,0,0,6.174.017,10.913,10.913,0,0,0,10.59,20.755l13.106.39A.166.166,0,0,0,23.793,21.118Z" fill="#fff" stroke="#b2b2b2" stroke-miterlimit="10" stroke-width="1"/>
              </g>
            </g>
          </g>
          <g id="ARC-4" data-name="ARC" transform="translate(14.298 3.438)">
            <g id="Group_4221-4" data-name="Group 4221" transform="translate(0)">
              <g id="Group_4220-4" data-name="Group 4220">
                <path id="Path_2153-4" data-name="Path 2153" d="M.466.315A.169.169,0,0,0,.38,0C.31,0,.241,0,.172,0A.171.171,0,0,0,0,.167.169.169,0,0,0,.166.338c.067,0,.135,0,.2,0A.168.168,0,0,0,.466.315Z" fill="#fff" stroke="#b2b2b2" stroke-miterlimit="10" stroke-width="1"/>
              </g>
            </g>
          </g>
          <g id="LINE-4" data-name="LINE" transform="translate(14.503 3.443)">
            <g id="Group_4223-4" data-name="Group 4223" transform="translate(0)">
              <g id="Group_4222-4" data-name="Group 4222" transform="translate(0)">
                <path id="Path_2154-4" data-name="Path 2154" d="M13.367.7a.171.171,0,0,0,.076-.137A.169.169,0,0,0,13.28.39L.174,0a.169.169,0,0,0-.01.337L13.27.728A.173.173,0,0,0,13.367.7Z" fill="#fff" stroke="#b2b2b2" stroke-miterlimit="10" stroke-width="1"/>
              </g>
            </g>
          </g>
          <g id="LWPOLYLINE-8" data-name="LWPOLYLINE">
            <g id="Group_4225-4" data-name="Group 4225">
              <g id="Group_4224-4" data-name="Group 4224">
                <path id="Path_2155-4" data-name="Path 2155" d="M27.128,29.06a.183.183,0,0,0,.033-.027,2.8,2.8,0,0,0,.147-3.608l.636-21.357A2.8,2.8,0,0,0,28.012.46.168.168,0,0,0,27.885.4L14.778.006A14.352,14.352,0,0,0,13.925,28.7l13.107.39A.169.169,0,0,0,27.128,29.06ZM27.8.732a2.463,2.463,0,0,1-.143,3.156A.163.163,0,0,0,27.609,4l-.64,21.479a.168.168,0,0,0,.038.11,2.466,2.466,0,0,1-.046,3.16l-13.027-.387A14.014,14.014,0,1,1,14.769.344Z" fill="#fff" stroke="#b2b2b2" stroke-miterlimit="10" stroke-width="1"/>
              </g>
            </g>
          </g>
        </g>
        <ellipse id="Ellipse_352-4" data-name="Ellipse 352" cx="1.378" cy="5.235" rx="1.378" ry="5.235" transform="translate(10.247 9.536)" fill="#fff" stroke="#b2b2b2" stroke-miterlimit="10" stroke-width="1"/>
      </g>
    </g>
  </g>
</svg>
