<svg xmlns="http://www.w3.org/2000/svg" width="24.599" height="19.533" viewBox="0 0 24.599 19.533">
  <g id="Component_48_229" data-name="Component 48 – 229" transform="translate(0.516 19.031) rotate(-90)">
    <g id="Group_4490" data-name="Group 4490" transform="translate(0 0)">
      <path id="Path_2284" data-name="Path 2284" d="M97.032,368.214l-.715-1s.724-.937,3.579-2.173c0,0,7.068-1.986,10.815.225l2.953,1.691-.685,1.024a14.9,14.9,0,0,0-5.356-2.3s-4.856-.836-8.513,1.141Z" transform="translate(-95.944 -364.114)" fill="#fff" stroke="#b2b2b2" stroke-miterlimit="10" stroke-width="1"/>
      <path id="Path_2285" data-name="Path 2285" d="M100.417,368.912s-3.995.063-3.662,5.385c0,0-1.465,8.506-.224,9.564,0,0,2.443,2.8,8.751,3.236,0,0,10.168-1.415,8.884-5.8,0,0-.014-7.391-.8-9.206,0,0-.078-3.65-5.08-3.435Z" transform="translate(-95.937 -363.692)" fill="#fff" stroke="#b2b2b2" stroke-miterlimit="10" stroke-width="1"/>
      <g id="Group_4489" data-name="Group 4489">
        <g id="LINE" transform="translate(0.008 8.145)">
          <g id="Group_4466" data-name="Group 4466">
            <g id="Group_4465" data-name="Group 4465">
              <path id="Path_2286" data-name="Path 2286" d="M96.9,372.279v.013l-.673,9.356a.141.141,0,0,1-.15.131.15.15,0,0,1-.131-.15l.673-9.357a.141.141,0,0,1,.281.008Z" transform="translate(-95.943 -372.141)" fill="#fff" stroke="#b2b2b2" stroke-miterlimit="10" stroke-width="1"/>
            </g>
          </g>
        </g>
        <g id="LINE-2" data-name="LINE" transform="translate(17.276 7.889)">
          <g id="Group_4468" data-name="Group 4468">
            <g id="Group_4467" data-name="Group 4467">
              <path id="Path_2287" data-name="Path 2287" d="M114.747,381.36a.141.141,0,0,1-.126.142.142.142,0,0,1-.155-.127l-.953-9.332a.141.141,0,1,1,.281-.029l.953,9.332Z" transform="translate(-113.513 -371.888)" fill="#fff" stroke="#b2b2b2" stroke-miterlimit="10" stroke-width="1"/>
            </g>
          </g>
        </g>
        <g id="LINE-3" data-name="LINE" transform="translate(4.369 4.373)">
          <g id="Group_4470" data-name="Group 4470">
            <g id="Group_4469" data-name="Group 4469">
              <path id="Path_2288" data-name="Path 2288" d="M109.744,368.629a.14.14,0,0,1-.138.142l-9.114.137a.14.14,0,0,1-.142-.138.141.141,0,0,1,.138-.143l9.114-.136A.14.14,0,0,1,109.744,368.629Z" transform="translate(-100.349 -368.491)" fill="#fff" stroke="#b2b2b2" stroke-miterlimit="10" stroke-width="1"/>
            </g>
          </g>
        </g>
        <g id="ARC" transform="translate(0.681 4.529)">
          <g id="Group_4472" data-name="Group 4472">
            <g id="Group_4471" data-name="Group 4471">
              <path id="Path_2289" data-name="Path 2289" d="M100.538,368.768a.141.141,0,0,1-.138.143,3.528,3.528,0,0,0-3.486,3.294.141.141,0,0,1-.15.131.143.143,0,0,1-.131-.151,3.809,3.809,0,0,1,3.763-3.555A.14.14,0,0,1,100.538,368.768Z" transform="translate(-96.633 -368.63)" fill="#fff" stroke="#b2b2b2" stroke-miterlimit="10" stroke-width="1"/>
            </g>
          </g>
        </g>
        <g id="ARC-2" data-name="ARC" transform="translate(13.552 4.389)">
          <g id="Group_4474" data-name="Group 4474">
            <g id="Group_4473" data-name="Group 4473">
              <path id="Path_2290" data-name="Path 2290" d="M113.7,371.943a.141.141,0,0,1-.281.017,3.529,3.529,0,0,0-3.582-3.188.14.14,0,0,1,0-.281,3.809,3.809,0,0,1,3.867,3.44Z" transform="translate(-109.694 -368.491)" fill="#fff" stroke="#b2b2b2" stroke-miterlimit="10" stroke-width="1"/>
            </g>
          </g>
        </g>
        <g id="ARC-3" data-name="ARC" transform="translate(0.86 1.231)">
          <g id="Group_4476" data-name="Group 4476">
            <g id="Group_4475" data-name="Group 4475">
              <path id="Path_2291" data-name="Path 2291" d="M113.215,367.886a.137.137,0,0,1-.023.079.142.142,0,0,1-.2.04,14.136,14.136,0,0,0-15.955.237.143.143,0,0,1-.2-.034.139.139,0,0,1,.035-.2,14.417,14.417,0,0,1,16.274-.242A.138.138,0,0,1,113.215,367.886Z" transform="translate(-96.817 -365.374)" fill="#fff" stroke="#b2b2b2" stroke-miterlimit="10" stroke-width="1"/>
            </g>
          </g>
        </g>
        <g id="ARC-4" data-name="ARC" transform="translate(0.151)">
          <g id="Group_4478" data-name="Group 4478">
            <g id="Group_4477" data-name="Group 4477">
              <path id="Path_2292" data-name="Path 2292" d="M113.876,366.83a.137.137,0,0,1-.023.079.142.142,0,0,1-.2.041,15.356,15.356,0,0,0-17.344.257.141.141,0,0,1-.2-.034.139.139,0,0,1,.035-.2,15.638,15.638,0,0,1,17.662-.261A.136.136,0,0,1,113.876,366.83Z" transform="translate(-96.089 -364.111)" fill="#fff" stroke="#b2b2b2" stroke-miterlimit="10" stroke-width="1"/>
            </g>
          </g>
        </g>
        <g id="LINE-4" data-name="LINE" transform="translate(0.151 2.84)">
          <g id="Group_4480" data-name="Group 4480">
            <g id="Group_4479" data-name="Group 4479">
              <path id="Path_2293" data-name="Path 2293" d="M97.08,368.166a.139.139,0,0,1-.059.117.141.141,0,0,1-.2-.034l-.709-1a.14.14,0,1,1,.23-.161l.709,1A.134.134,0,0,1,97.08,368.166Z" transform="translate(-96.089 -367.023)" fill="#fff" stroke="#b2b2b2" stroke-miterlimit="10" stroke-width="1"/>
            </g>
          </g>
        </g>
        <g id="LINE-5" data-name="LINE" transform="translate(16.977 2.58)">
          <g id="Group_4482" data-name="Group 4482">
            <g id="Group_4481" data-name="Group 4481">
              <path id="Path_2294" data-name="Path 2294" d="M114.167,366.9a.137.137,0,0,1-.022.079l-.68,1.025a.14.14,0,0,1-.2.04.139.139,0,0,1-.04-.194l.68-1.025a.14.14,0,0,1,.2-.04A.136.136,0,0,1,114.167,366.9Z" transform="translate(-113.206 -366.757)" fill="#fff" stroke="#b2b2b2" stroke-miterlimit="10" stroke-width="1"/>
            </g>
          </g>
        </g>
        <g id="ARC-5" data-name="ARC" transform="translate(1.802 20.938)">
          <g id="Group_4484" data-name="Group 4484">
            <g id="Group_4483" data-name="Group 4483">
              <path id="Path_2295" data-name="Path 2295" d="M112.8,385.173a.137.137,0,0,1-.066.12,14.246,14.246,0,0,1-14.883.22.139.139,0,0,1-.049-.192.142.142,0,0,1,.194-.049,13.967,13.967,0,0,0,14.586-.216.143.143,0,0,1,.195.043A.139.139,0,0,1,112.8,385.173Z" transform="translate(-97.783 -385.035)" fill="#fff" stroke="#b2b2b2" stroke-miterlimit="10" stroke-width="1"/>
            </g>
          </g>
        </g>
        <g id="ARC-6" data-name="ARC" transform="translate(16.54 17.449)">
          <g id="Group_4486" data-name="Group 4486">
            <g id="Group_4485" data-name="Group 4485">
              <path id="Path_2296" data-name="Path 2296" d="M114.748,381.922a3.811,3.811,0,0,1-1.775,3.283.141.141,0,0,1-.194-.043.142.142,0,0,1,.044-.194,3.492,3.492,0,0,0,1.625-3.356.148.148,0,0,1,.127-.154.141.141,0,0,1,.154.126C114.739,381.7,114.746,381.81,114.748,381.922Z" transform="translate(-112.757 -381.457)" fill="#fff" stroke="#b2b2b2" stroke-miterlimit="10" stroke-width="1"/>
            </g>
          </g>
        </g>
        <g id="ARC-7" data-name="ARC" transform="translate(0 17.719)">
          <g id="Group_4488" data-name="Group 4488">
            <g id="Group_4487" data-name="Group 4487">
              <path id="Path_2297" data-name="Path 2297" d="M98.018,385.309a.146.146,0,0,1-.02.074.141.141,0,0,1-.193.049,3.828,3.828,0,0,1-1.863-3.567.142.142,0,0,1,.151-.131.145.145,0,0,1,.13.15,3.514,3.514,0,0,0,1.725,3.306A.139.139,0,0,1,98.018,385.309Z" transform="translate(-95.934 -381.735)" fill="#fff" stroke="#b2b2b2" stroke-miterlimit="10" stroke-width="1"/>
            </g>
          </g>
        </g>
      </g>
    </g>
  </g>
</svg>
