<svg xmlns="http://www.w3.org/2000/svg" viewBox="0 0 336 247" width="336" height="247">
	<style>
		tspan { white-space:pre }
		.shp0 { fill: #544ef6;stroke: #544ef6;stroke-width: 0.5 } 
	</style>
	<path id="Path 2687" fill-rule="evenodd" class="shp0" d="M318 186.22C318 212.32 296.65 233.67 270.56 233.67L60.44 233.67C34.35 233.67 13 212.32 13 186.22C13 182.49 16.05 179.44 19.78 179.44L36.72 179.44L36.72 43.89C36.72 25.25 51.97 10 70.61 10L260.39 10C279.03 10 294.28 25.25 294.28 43.89L294.28 179.44L311.22 179.44C314.95 179.44 318 182.49 318 186.22ZM50.28 179.44L118.06 179.44L118.06 165.89C118.06 147.59 128.22 131.66 143.47 123.87C136.36 117.77 131.61 108.28 131.61 98.11C131.61 79.47 146.86 64.22 165.5 64.22C184.14 64.22 199.39 79.47 199.39 98.11C199.39 108.28 194.64 117.77 187.53 123.87C202.44 131.66 212.94 147.59 212.94 165.89L212.94 179.44L280.72 179.44L280.72 43.89C280.72 32.71 271.57 23.56 260.39 23.56L70.61 23.56C59.43 23.56 50.28 32.71 50.28 43.89L50.28 179.44ZM165.5 118.44C176.68 118.44 185.83 109.29 185.83 98.11C185.83 86.93 176.68 77.78 165.5 77.78C154.32 77.78 145.17 86.93 145.17 98.11C145.17 109.29 154.32 118.44 165.5 118.44ZM199.39 165.89C199.39 147.25 184.14 132 165.5 132C146.86 132 131.61 147.25 131.61 165.89L131.61 179.44L199.39 179.44L199.39 165.89ZM303.77 193L27.23 193C30.28 208.59 44.18 220.11 60.44 220.11L270.56 220.11C286.82 220.11 300.72 208.59 303.77 193Z" />
</svg>