<svg xmlns="http://www.w3.org/2000/svg" width="31.259" height="19.359" viewBox="0 0 31.259 19.359"><g transform="translate(0 0)"><path d="M51.259,51.354a7.688,7.688,0,0,0-.53-2.7,6.661,6.661,0,0,0-4.159-3.907,3.2,3.2,0,1,0-4.121,0,6.779,6.779,0,0,0-2.522,1.527,7.437,7.437,0,0,0-2.06-.853A4.266,4.266,0,1,0,31.4,41.763a4.327,4.327,0,0,0,2.06,3.659,9.663,9.663,0,0,0-2.06.853,7.073,7.073,0,0,0-2.522-1.527,3.2,3.2,0,1,0-4.121,0A6.9,6.9,0,0,0,20,51.354v1.954h6.82c-.036.355-.071.746-.071,1.137v2.415H44.51V54.444c0-.391-.036-.746-.071-1.137h6.82Zm-6.749-10.8a1.776,1.776,0,1,1-1.776,1.776A1.759,1.759,0,0,1,44.51,40.555Zm-8.88-1.6A2.842,2.842,0,1,1,32.788,41.8,2.85,2.85,0,0,1,35.63,38.956Zm-8.88,1.6a1.776,1.776,0,1,1-1.776,1.776A1.759,1.759,0,0,1,26.749,40.555ZM21.421,51.886v-.533a5.429,5.429,0,0,1,5.328-5.506,5.322,5.322,0,0,1,3.41,1.279,9.4,9.4,0,0,0-3.055,4.76Zm21.668,3.552H28.17v-.995a7.7,7.7,0,0,1,7.46-7.886,7.7,7.7,0,0,1,7.46,7.886Zm6.749-3.552H44.155a9.4,9.4,0,0,0-3.055-4.76,5.322,5.322,0,0,1,3.41-1.279,5.429,5.429,0,0,1,5.328,5.506Z" transform="translate(-20 -37.5)"/></g></svg>