<svg xmlns="http://www.w3.org/2000/svg" width="23.475" height="21.389" viewBox="0 0 23.475 21.389"><defs><style>.a{fill:#07d755;}</style></defs><g transform="translate(-106 134.174)"><g transform="translate(101 -1095.536)"><path class="a" d="M13.868,9a6.524,6.524,0,0,0-6.521,6.521v4.451A2.615,2.615,0,0,0,5,22.564V27.78a2.62,2.62,0,0,0,2.608,2.608h2.869a.813.813,0,0,0,.783-.783V17.094A3.116,3.116,0,0,1,14.4,13.956h4.679a3.154,3.154,0,0,1,3.138,3.163V29.606a.813.813,0,0,0,.783.783h2.869a2.62,2.62,0,0,0,2.608-2.608V22.564a2.615,2.615,0,0,0-2.348-2.592V15.521A6.524,6.524,0,0,0,19.607,9Zm0,1.565h5.738a4.928,4.928,0,0,1,4.956,4.956v4.434H23.78V17.094q0-.012,0-.024a4.763,4.763,0,0,0-4.7-4.679H14.4a4.711,4.711,0,0,0-4.7,4.7v2.861H8.913V15.521A4.928,4.928,0,0,1,13.868,10.565ZM7.608,21.52H9.7v7.3H7.608A1.024,1.024,0,0,1,6.565,27.78V22.564A1.024,1.024,0,0,1,7.608,21.52Zm16.172,0h2.087a1.024,1.024,0,0,1,1.043,1.043V27.78a1.024,1.024,0,0,1-1.043,1.043H23.78Z" transform="translate(0 952.362)"/></g></g></svg>