<?xml version="1.0" encoding="utf-8"?>
<!-- Generator: Adobe Illustrator 25.0.0, SVG Export Plug-In . SVG Version: 6.00 Build 0)  -->
<svg version="1.1" id="Layer_1" xmlns="http://www.w3.org/2000/svg" xmlns:xlink="http://www.w3.org/1999/xlink" x="0px" y="0px"
	 viewBox="0 0 1468.2 933.8" style="enable-background:new 0 0 1468.2 933.8;" xml:space="preserve">
<style type="text/css">
	.st0{fill:url(#SVGID_1_);}
	.st1{opacity:0.2;}
	.st2{fill:#C397F2;}
	.st3{fill:url(#SVGID_2_);}
	.st4{fill:#A97EE0;}
	.st5{fill:url(#SVGID_3_);}
	.st6{fill:url(#SVGID_4_);}
	.st7{fill:url(#SVGID_5_);}
	.st8{fill:url(#SVGID_6_);}
	.st9{fill:url(#SVGID_7_);}
	.st10{fill:url(#SVGID_8_);}
	.st11{fill:url(#SVGID_9_);}
	.st12{fill:url(#SVGID_10_);}
	.st13{opacity:0.2;fill:#766DD4;enable-background:new    ;}
	.st14{fill:url(#SVGID_11_);}
	.st15{fill:url(#SVGID_12_);}
	.st16{fill:url(#SVGID_13_);}
	.st17{fill:url(#SVGID_14_);}
	.st18{opacity:5.000000e-02;fill:#2C2CA0;enable-background:new    ;}
	.st19{opacity:0.2;fill:#CFCFFF;enable-background:new    ;}
	.st20{opacity:0.8;}
	.st21{fill:#FFFFFF;fill-opacity:0;}
	.st22{opacity:2.400000e-02;fill:#FBFAFD;enable-background:new    ;}
	.st23{opacity:4.900000e-02;fill:#F7F5FB;enable-background:new    ;}
	.st24{opacity:7.300000e-02;fill:#F3F1F9;enable-background:new    ;}
	.st25{opacity:9.800000e-02;fill:#EFECF7;enable-background:new    ;}
	.st26{opacity:0.122;fill:#EBE7F5;enable-background:new    ;}
	.st27{opacity:0.146;fill:#E7E2F3;enable-background:new    ;}
	.st28{opacity:0.171;fill:#E3DEF1;enable-background:new    ;}
	.st29{opacity:0.195;fill:#DFD9EF;enable-background:new    ;}
	.st30{opacity:0.22;fill:#DBD4ED;enable-background:new    ;}
	.st31{opacity:0.244;fill:#D7CFEB;enable-background:new    ;}
	.st32{opacity:0.268;fill:#D4CAE8;enable-background:new    ;}
	.st33{opacity:0.293;fill:#D0C6E6;enable-background:new    ;}
	.st34{opacity:0.317;fill:#CCC1E4;enable-background:new    ;}
	.st35{opacity:0.341;fill:#C8BCE2;enable-background:new    ;}
	.st36{opacity:0.366;fill:#C4B7E0;enable-background:new    ;}
	.st37{opacity:0.39;fill:#C0B3DE;enable-background:new    ;}
	.st38{opacity:0.415;fill:#BCAEDC;enable-background:new    ;}
	.st39{opacity:0.439;fill:#B8A9DA;enable-background:new    ;}
	.st40{opacity:0.463;fill:#B4A4D8;enable-background:new    ;}
	.st41{opacity:0.488;fill:#B09FD6;enable-background:new    ;}
	.st42{opacity:0.512;fill:#AC9BD4;enable-background:new    ;}
	.st43{opacity:0.537;fill:#A896D2;enable-background:new    ;}
	.st44{opacity:0.561;fill:#A491D0;enable-background:new    ;}
	.st45{opacity:0.585;fill:#A08CCE;enable-background:new    ;}
	.st46{opacity:0.61;fill:#9C87CC;enable-background:new    ;}
	.st47{opacity:0.634;fill:#9883CA;enable-background:new    ;}
	.st48{opacity:0.659;fill:#947EC8;enable-background:new    ;}
	.st49{opacity:0.683;fill:#9079C6;enable-background:new    ;}
	.st50{opacity:0.707;fill:#8C74C4;enable-background:new    ;}
	.st51{opacity:0.732;fill:#8870C2;enable-background:new    ;}
	.st52{opacity:0.756;fill:#856BBF;enable-background:new    ;}
	.st53{opacity:0.78;fill:#8166BD;enable-background:new    ;}
	.st54{opacity:0.805;fill:#7D61BB;enable-background:new    ;}
	.st55{opacity:0.829;fill:#795CB9;enable-background:new    ;}
	.st56{opacity:0.854;fill:#7558B7;enable-background:new    ;}
	.st57{opacity:0.878;fill:#7153B5;enable-background:new    ;}
	.st58{opacity:0.902;fill:#6D4EB3;enable-background:new    ;}
	.st59{opacity:0.927;fill:#6949B1;enable-background:new    ;}
	.st60{opacity:0.951;fill:#6545AF;enable-background:new    ;}
	.st61{opacity:0.976;fill:#6140AD;enable-background:new    ;}
	.st62{fill:#5D3BAB;}
	.st63{fill:url(#SVGID_15_);}
	.st64{opacity:0.3;}
	.st65{fill:#986BD1;}
	.st66{opacity:0.2;fill:#C397F2;enable-background:new    ;}
	.st67{fill:url(#SVGID_16_);}
	.st68{fill:url(#SVGID_17_);}
	.st69{fill:url(#SVGID_18_);}
	.st70{fill:url(#SVGID_19_);}
	.st71{fill:url(#SVGID_20_);}
	.st72{fill:url(#SVGID_21_);}
	.st73{fill:url(#SVGID_22_);}
	.st74{fill:url(#SVGID_23_);}
	.st75{fill:url(#SVGID_24_);}
	.st76{fill:url(#SVGID_25_);}
	.st77{fill:url(#SVGID_26_);}
	.st78{fill:url(#SVGID_27_);}
	.st79{fill:none;stroke:#FFFFFF;stroke-width:3.189;stroke-linecap:round;stroke-miterlimit:10;}
	.st80{fill:none;stroke:#FFFFFF;stroke-width:3.328;stroke-linecap:round;stroke-miterlimit:10;}
</style>
<g transform="translate(-173.509 381.615)">
	<g transform="translate(1411.595 -381.615)">
		
			<linearGradient id="SVGID_1_" gradientUnits="userSpaceOnUse" x1="-1576.8511" y1="38.5696" x2="-1576.2576" y2="38.5696" gradientTransform="matrix(220.7606 0 0 136.3025 355019.25 -4979.7847)">
			<stop  offset="0" style="stop-color:#CFCFFF"/>
			<stop  offset="0.168" style="stop-color:#C0BCF4"/>
			<stop  offset="0.508" style="stop-color:#9A8BD8"/>
			<stop  offset="0.985" style="stop-color:#5E3DAC"/>
			<stop  offset="1" style="stop-color:#5D3BAB"/>
		</linearGradient>
		<path class="st0" d="M55.9,331.7c16.9,4.6,34.6,7.9,51,0.3c13-6,24.3-13.3,33.4-24.4c12.6-15.4,12.8-27.8,31.2-38.3
			c15.8-9,25.8-33.7,41.8-51.2c-25.1,13-38.6,14.6-64.3,19.8c-27,5.4-34.7,30.4-53,47.8c-13.4,12.8-31.4,18.7-49.3,22
			c-6.7,1.3-20.4,0.2-24.5,7.3c-5.7,10,19.6,17.1,27.5,16.9c4.3-0.1,8.4-1.5,11.9,2.3L55.9,331.7z"/>
		<g transform="translate(27.87 69.885)" class="st1">
			<path class="st2" d="M31.4,248.3l-5.7-2.6c1.3,0.3,2.5,0.7,3.8,1C30.2,247.1,30.8,247.6,31.4,248.3z"/>
			<path class="st2" d="M9.6,244.5c3.7-0.4,7.4-0.6,10-1c17.9-3.4,35.9-9.3,49.3-22c18.3-17.4,25.3-34.4,52.3-39.8
				c10.7-2.2,17.9,0.6,38.1-13.8c-1.9,0.5-12,19.1-20.4,23.8c-18.3,10.4-16.3,14.5-29,29.9c-9.1,11.1-20.3,18.4-33.4,24.4
				c-15.2,7-31.4,4.8-47.2,0.7c-3.1-1.8-6.5-0.8-10-0.7C16.1,245.9,12.8,245.4,9.6,244.5z"/>
		</g>
		<g transform="translate(24.371 0.143)">
			
				<linearGradient id="SVGID_2_" gradientUnits="userSpaceOnUse" x1="-1659.4801" y1="38.6107" x2="-1658.764" y2="38.6107" gradientTransform="matrix(143.0612 0 0 137.1318 237339.8594 -5058.2188)">
				<stop  offset="0" style="stop-color:#F25A91"/>
				<stop  offset="0.217" style="stop-color:#EB6CA3"/>
				<stop  offset="0.653" style="stop-color:#DC9DD2"/>
				<stop  offset="1" style="stop-color:#CEC8FD"/>
			</linearGradient>
			<path class="st3" d="M133.4,238.8c-6.5,31.8-44,45.5-76,54.8c-32,9.3-52.6-9-46.1-40.8S49,187.7,81,178.4
				C113,169.1,139.9,207,133.4,238.8z"/>
			<g transform="translate(48.4 20.885)">
				<path class="st4" d="M3.8,273.8l0.5-1.1c0.3-0.7,0.8-1.7,1.4-3c1.2-2.6,2.8-6.3,4.5-10.8c0.9-2.2,1.8-4.7,2.8-7.3
					s1.8-5.4,2.9-8.2c0.9-2.9,1.9-5.8,2.8-8.9c0.9-3,1.8-6.1,2.5-9.3c0.4-1.6,0.8-3.1,1.2-4.7c0.3-1.6,0.6-3.1,1-4.7
					c0.3-1.6,0.6-3.1,0.9-4.6c0.2-1.5,0.5-3,0.7-4.5s0.5-3,0.7-4.4s0.3-2.9,0.5-4.2c0.2-1.4,0.3-2.7,0.5-4s0.2-2.6,0.3-3.8
					c0.2-2.4,0.3-4.6,0.5-6.6c0-2,0-3.7,0-5.1c0-2.8,0.1-4.5,0.1-4.5s0.2,1.6,0.5,4.4c0.2,1.4,0.3,3.1,0.6,5.1
					c0.1,2,0.2,4.2,0.2,6.7c0,1.2,0.1,2.5,0,3.8s-0.1,2.7-0.2,4.1c-0.1,1.4-0.2,2.9-0.2,4.3c-0.1,1.5-0.3,3-0.5,4.5
					s-0.4,3.1-0.6,4.6c-0.2,1.6-0.5,3.1-0.8,4.7c-0.3,1.6-0.6,3.2-0.9,4.8c-0.4,1.6-0.8,3.2-1.1,4.8c-0.7,3.2-1.7,6.3-2.6,9.4
					c-0.9,3.1-2.1,6-3.1,8.9c-1.1,2.8-2.2,5.6-3.4,8.2c-1.1,2.6-2.2,5-3.4,7.2c-1.1,2.2-2.2,4.2-3.1,5.9c-1,1.7-1.9,3.2-2.6,4.4
					c-0.7,1.2-1.4,2.1-1.8,2.8L3.8,273.8z"/>
			</g>
			<g transform="translate(73.485 41.06)">
				<path class="st4" d="M0.5,185.9c0,0,1.7-0.8,4.1-2.1c1.2-0.6,2.6-1.4,4.2-2.1c1.5-0.8,3.1-1.7,4.7-2.6c1.6-0.9,3.2-1.7,4.7-2.7
					c1.5-0.9,2.8-1.7,4-2.5c2.3-1.4,3.9-2.4,3.9-2.4s-1.4,1.1-3.6,2.8l-3.7,2.9c-1.3,1.1-2.9,2.1-4.4,3.2c-1.5,1.1-3,2.2-4.4,3.2
					s-2.8,1.9-3.9,2.6c-2.3,1.6-3.9,2.5-3.9,2.5L0.5,185.9z"/>
			</g>
			<g transform="translate(63.809 76.239)">
				<path class="st4" d="M1.7,185.5c0,0,2.3-1,5.6-2.6l5.7-2.8c2.1-1,4.2-2.2,6.4-3.3c2.2-1.1,4.4-2.3,6.4-3.4
					c2-1.2,3.8-2.3,5.4-3.2c3.2-1.9,5.3-3.2,5.3-3.2l-5,3.6c-1.5,1.1-3.2,2.4-5.1,3.7c-2,1.3-4,2.6-6.1,3.9s-4.2,2.7-6.2,3.9
					s-3.9,2.3-5.5,3.3c-3.2,1.9-5.3,3.1-5.3,3.1L1.7,185.5z"/>
			</g>
			<g transform="translate(65.429 31.113)">
				<path class="st4" d="M10.4,180.5c0,0-2.5-1.7-4.8-3.5c-1.1-0.8-2.1-1.7-3-2.7c-0.3-0.3-0.6-0.7-0.8-1l-0.3-0.4
					c0,0,0.1,0.1,0.3,0.4c0.3,0.3,0.6,0.6,1,0.9c1.1,0.8,2.2,1.6,3.3,2.2c2.5,1.5,5.1,2.7,5.1,2.7L10.4,180.5z"/>
			</g>
			<g transform="translate(47.276 66.537)">
				<path class="st4" d="M22.6,183.2l-3-2.3c-1.8-1.4-4.2-3.2-6.5-5c-2.3-1.9-4.7-3.7-6.4-5.2l-2.8-2.5c0,0,1.2,0.8,3.1,2.1
					c1.8,1.3,4.5,2.7,7,4.2c2.6,1.5,5.2,2.9,7.1,4.1l3.3,1.8L22.6,183.2z"/>
			</g>
		</g>
		
			<linearGradient id="SVGID_3_" gradientUnits="userSpaceOnUse" x1="-1483.4888" y1="198.1185" x2="-1482.9996" y2="198.6477" gradientTransform="matrix(32.1077 0 0 80.037 52378.293 -2902.7659)">
			<stop  offset="0" style="stop-color:#C397F2"/>
			<stop  offset="1" style="stop-color:#5D3BAB"/>
		</linearGradient>
		<path class="st5" d="M30,256.2c-8.6-10.1-15.5-19.4-16.5-33c-0.8-11.6,2.8-24.2-0.1-35.6c7.1,11.4,25.9,23.5,27.8,39
			c0.8,7-3.3,13.1-6.4,18.4c-1.8,3.2-5.5,7.7-3.7,12.1L30,256.2z"/>
		
			<linearGradient id="SVGID_4_" gradientUnits="userSpaceOnUse" x1="-1597.1255" y1="192.3995" x2="-1597.0066" y2="192.8495" gradientTransform="matrix(25.3969 0 0 70.2967 41623.5781 -2540.5039)">
			<stop  offset="0" style="stop-color:#C397F2"/>
			<stop  offset="0.151" style="stop-color:#A980E0"/>
			<stop  offset="0.388" style="stop-color:#8862C9"/>
			<stop  offset="0.615" style="stop-color:#704CB8"/>
			<stop  offset="0.824" style="stop-color:#613FAE"/>
			<stop  offset="1" style="stop-color:#5D3BAB"/>
		</linearGradient>
		<path class="st6" d="M22.5,227c0,1.4,0,2.9,0.1,4.3c0.2,4.4,0.6,11.8,4.6,13.8c1.6,0.7,3.4,0.7,5.1,0.2c8.7-3.3,9.6-14.5,9-24
			c-0.5-7.4,5-10.2,2.8-17.4c-0.9-3.1-4.3-11.6-3.1-19.3c-4.9,5.9-7.1,14-11.3,20.5c-2.5,3.9-5.2,7.7-6.2,12.6
			C23,220.8,22.6,223.9,22.5,227z"/>
		
			<linearGradient id="SVGID_5_" gradientUnits="userSpaceOnUse" x1="-1515.01" y1="-56.0136" x2="-1515.8574" y2="-55.2785" gradientTransform="matrix(41.4573 0 0 85.397 67400.3203 -3116.1604)">
			<stop  offset="0" style="stop-color:#C397F2"/>
			<stop  offset="0.231" style="stop-color:#B086E4"/>
			<stop  offset="0.697" style="stop-color:#7F5AC3"/>
			<stop  offset="1" style="stop-color:#5D3BAB"/>
		</linearGradient>
		<path class="st7" d="M39.3,250.7c9.8-6.4,18-12.6,21.5-25.8c3-11.2,4.2-37.9,9-48c-8.7,8.3-30.6,24.9-35.3,39.6
			c-2.1,6.7,0.6,14.5,2.4,21c1.1,3.9,3.6,10,1.1,13.6L39.3,250.7z"/>
		
			<linearGradient id="SVGID_6_" gradientUnits="userSpaceOnUse" x1="-1648.2941" y1="33.2883" x2="-1647.6145" y2="33.4899" gradientTransform="matrix(35.097 0 0 68.23 57207.8633 -2444.0315)">
			<stop  offset="0" style="stop-color:#C397F2"/>
			<stop  offset="0.231" style="stop-color:#B086E4"/>
			<stop  offset="0.697" style="stop-color:#7F5AC3"/>
			<stop  offset="1" style="stop-color:#5D3BAB"/>
		</linearGradient>
		<path class="st8" d="M43.5,258.8c-1-13.3-1.2-24.9,6.1-34.5c6.2-8.2,16.6-13.5,21-23.3c-1,12.9,7.2,35.7-0.5,47.3
			c-3.5,5.3-10.5,5.9-16.1,7c-3.4,0.6-9.1,0.7-10.2,5L43.5,258.8z"/>
		
			<linearGradient id="SVGID_7_" gradientUnits="userSpaceOnUse" x1="-1639.6604" y1="40.3068" x2="-1638.8114" y2="40.3068" gradientTransform="matrix(53.0947 0 0 33.452 86080.875 -1094.463)">
			<stop  offset="0" style="stop-color:#C397F2"/>
			<stop  offset="0.231" style="stop-color:#B086E4"/>
			<stop  offset="0.697" style="stop-color:#7F5AC3"/>
			<stop  offset="1" style="stop-color:#5D3BAB"/>
		</linearGradient>
		<path class="st9" d="M51.5,246.7c-0.7,0.7-1.3,1.5-1.9,2.3c-3.4,4.4-8.8,13-1.3,17.9c2.9,1.9,8,1.5,10.9,1.2
			c4.8-0.5,8-3.5,10.7-7.8c3.9-6.3,7.1-9.4,13.9-11.4c2.3-0.7,4.5-2.4,6.9-2.6c-7.7-0.1-14.8-5.7-22.5-6.8
			C61.6,238.5,55.9,242,51.5,246.7z"/>
	</g>
	<g transform="translate(1270.024 -321.091)">
		
			<linearGradient id="SVGID_8_" gradientUnits="userSpaceOnUse" x1="-1323.8977" y1="38.7958" x2="-1323.0044" y2="37.9929" gradientTransform="matrix(294.24 0 0 188.813 389571.875 -6998.2617)">
			<stop  offset="0" style="stop-color:#CFCFFF"/>
			<stop  offset="0.24" style="stop-color:#BDBCF6"/>
			<stop  offset="0.722" style="stop-color:#918BE1"/>
			<stop  offset="1" style="stop-color:#766DD4"/>
		</linearGradient>
		<rect x="31.8" y="169" class="st10" width="255.7" height="164.1"/>
		
			<linearGradient id="SVGID_9_" gradientUnits="userSpaceOnUse" x1="-1326.0032" y1="38.3947" x2="-1326.8718" y2="38.3947" gradientTransform="matrix(147.119 0 0 188.809 195367.7656 -6998.1182)">
			<stop  offset="0" style="stop-color:#CFCFFF"/>
			<stop  offset="0.24" style="stop-color:#BDBCF6"/>
			<stop  offset="0.722" style="stop-color:#918BE1"/>
			<stop  offset="1" style="stop-color:#766DD4"/>
		</linearGradient>
		<path class="st11" d="M287.5,333.1l-127.8-82l127.8-82V333.1z"/>
		
			<linearGradient id="SVGID_10_" gradientUnits="userSpaceOnUse" x1="-1326.7412" y1="38.3943" x2="-1325.8726" y2="38.3943" gradientTransform="matrix(147.121 0 0 188.813 195223.2969 -6998.2617)">
			<stop  offset="0" style="stop-color:#CFCFFF"/>
			<stop  offset="0.24" style="stop-color:#BDBCF6"/>
			<stop  offset="0.722" style="stop-color:#918BE1"/>
			<stop  offset="1" style="stop-color:#766DD4"/>
		</linearGradient>
		<path class="st12" d="M31.8,333.1V169l127.8,82L31.8,333.1z"/>
		<path class="st13" d="M159.7,266.6L44.3,177h230.8L159.7,266.6z"/>
		
			<linearGradient id="SVGID_11_" gradientUnits="userSpaceOnUse" x1="-1323.8853" y1="38.8162" x2="-1323.0162" y2="38.8162" gradientTransform="matrix(294.24 0 0 94.4 389571.875 -3454.1116)">
			<stop  offset="0" style="stop-color:#C397F2"/>
			<stop  offset="0.295" style="stop-color:#B08CEA"/>
			<stop  offset="0.889" style="stop-color:#7F72D7"/>
			<stop  offset="1" style="stop-color:#766DD4"/>
		</linearGradient>
		<path class="st14" d="M159.7,251.1l-127.8-82h255.7L159.7,251.1z"/>
	</g>
	<g transform="translate(230.181 2.514)">
		<g transform="translate(199.493 0)">
			
				<linearGradient id="SVGID_12_" gradientUnits="userSpaceOnUse" x1="164.1848" y1="51.5198" x2="164.1874" y2="127.1322" gradientTransform="matrix(4.507 0 0 4.086 -749.0312 -63.8416)">
				<stop  offset="0" style="stop-color:#C397F2"/>
				<stop  offset="0.235" style="stop-color:#D183D3"/>
				<stop  offset="0.563" style="stop-color:#E36DAF"/>
				<stop  offset="0.83" style="stop-color:#EE5F99"/>
				<stop  offset="1" style="stop-color:#F25A91"/>
			</linearGradient>
			<path class="st15" d="M-9.9,150.2l-1.1-1.9c1.8-1.1,2.8-1.7,2.8-1.7l1.1,1.9C-7.1,148.5-8.1,149.1-9.9,150.2z"/>
		</g>
		<g transform="translate(0 5.976)">
			
				<linearGradient id="SVGID_13_" gradientUnits="userSpaceOnUse" x1="755.1248" y1="37.6851" x2="755.1248" y2="38.5688" gradientTransform="matrix(216.065 0 0 349.628 -163047 -13035.0566)">
				<stop  offset="0" style="stop-color:#C397F2"/>
				<stop  offset="0.235" style="stop-color:#D183D3"/>
				<stop  offset="0.563" style="stop-color:#E36DAF"/>
				<stop  offset="0.83" style="stop-color:#EE5F99"/>
				<stop  offset="1" style="stop-color:#F25A91"/>
			</linearGradient>
			<path class="st16" d="M150,449.6c-2,0-4.1,0-6.1-0.1l0.1-2.2c2,0.1,4,0.1,6,0.1h0.5v2.2H150z M157.2,449.5l-0.1-2.2
				c2.2-0.1,4.4-0.2,6.5-0.4l0.2,2.2C161.6,449.3,159.4,449.4,157.2,449.5z M137.3,449.1c-2.2-0.2-4.4-0.4-6.6-0.7l0.3-2.2
				c2.1,0.3,4.3,0.5,6.5,0.7L137.3,449.1z M170.4,448.5l-0.2-2.2c2.1-0.2,4.3-0.5,6.5-0.9l0.3,2.2
				C174.8,447.9,172.6,448.2,170.4,448.5L170.4,448.5z M124.1,447.5c-2.2-0.4-4.4-0.8-6.5-1.3l0.5-2.1c2.1,0.5,4.3,0.9,6.4,1.2
				L124.1,447.5z M183.5,446.5l-0.4-2.1c2.1-0.4,4.3-0.8,6.4-1.3l0.5,2.1C187.8,445.7,185.7,446.1,183.5,446.5L183.5,446.5z
				 M111.1,444.7c-2.1-0.6-4.3-1.2-6.4-1.9l0.7-2.1c2.1,0.7,4.2,1.3,6.3,1.8L111.1,444.7z M196.5,443.8l-0.5-2.1
				c2.1-0.5,4.2-1.1,6.4-1.6l0.6,2.1C200.7,442.7,198.6,443.3,196.5,443.8L196.5,443.8z M98.5,440.6c-2.1-0.8-4.1-1.6-6.2-2.5l0.9-2
				c2,0.9,4,1.7,6,2.5L98.5,440.6z M86.3,435.3c-2-1-4-2.1-5.9-3.1l1.1-1.9c1.9,1.1,3.8,2.1,5.8,3.1L86.3,435.3z M74.8,428.7
				c-1.9-1.2-3.7-2.5-5.5-3.7l1.3-1.8c1.8,1.3,3.6,2.5,5.4,3.7L74.8,428.7z M64,420.9c-1.7-1.4-3.4-2.8-5.1-4.3l1.5-1.6
				c1.6,1.4,3.3,2.9,5,4.2L64,420.9z M54.1,412c-1.6-1.6-3.1-3.2-4.6-4.8l1.6-1.5c1.5,1.6,3,3.2,4.5,4.7L54.1,412z M45.2,402.2
				c-1.4-1.7-2.7-3.5-4.1-5.3l1.8-1.3c1.3,1.8,2.6,3.5,4,5.2L45.2,402.2z M37.4,391.5c-1.2-1.8-2.4-3.7-3.5-5.6l1.9-1.1
				c1.1,1.9,2.3,3.8,3.4,5.5L37.4,391.5z M30.7,380c-1-1.9-2-3.9-2.9-6l2-0.9c0.9,2,1.9,4,2.9,5.9L30.7,380z M25.1,368
				c-0.8-2-1.6-4.1-2.3-6.2l2.1-0.7c0.7,2.1,1.5,4.1,2.3,6.1L25.1,368z M20.7,355.5c-0.6-2.1-1.2-4.3-1.7-6.4l2.1-0.5
				c0.5,2.1,1.1,4.2,1.7,6.3L20.7,355.5z M17.6,342.6c-0.4-2.2-0.8-4.4-1.1-6.5l2.2-0.3c0.3,2.1,0.7,4.3,1.1,6.4L17.6,342.6z
				 M15.7,329.4c-0.2-2.2-0.4-4.4-0.4-6.6l2.2-0.1c0.1,2.1,0.2,4.3,0.4,6.5L15.7,329.4z M17.3,316.2h-2.2c0-2.2,0.1-4.5,0.2-6.6
				l2.2,0.1C17.4,311.8,17.3,314,17.3,316.2L17.3,316.2z M18.1,303.2l-2.2-0.2c0.2-2.2,0.6-4.4,0.9-6.6l2.2,0.4
				C18.7,298.8,18.4,301,18.1,303.2L18.1,303.2z M20.3,290.3l-2.1-0.5c0.5-2.2,1.1-4.3,1.7-6.4L22,284
				C21.3,286,20.8,288.2,20.3,290.3L20.3,290.3z M136,280.9c-2.3-0.4-4.5-1.2-6.5-2.3l1-1.9c1.8,1,3.8,1.7,5.9,2.1L136,280.9z
				 M143.1,280.4l-0.7-2.1c1.9-0.7,3.7-1.8,5.1-3.2l1.5,1.5C147.3,278.4,145.3,279.7,143.1,280.4L143.1,280.4z M23.9,277.8l-2.1-0.7
				c0.7-2.1,1.6-4.2,2.4-6.2l2,0.9C25.5,273.7,24.7,275.7,23.9,277.8z M123.9,274.8c-1.7-1.4-3.3-2.9-4.8-4.5l1.5-1.6l0.1,0.1
				c1.4,1.5,3,3,4.6,4.3L123.9,274.8z M153,271.1l-1.9-1c1-1.9,1.7-3.9,2.3-5.9l2.1,0.6C154.9,266.9,154.1,269.1,153,271.1
				L153,271.1z M29.1,265.8l-1.9-1c1-2,2.1-3.9,3.2-5.8l1.9,1.1C31.1,261.9,30.1,263.8,29.1,265.8L29.1,265.8z M114.6,265.1
				c-1.4-1.8-2.6-3.7-3.7-5.6l1.9-1.1c1.1,1.9,2.2,3.7,3.5,5.4L114.6,265.1z M156.7,258.1l-2.2-0.2c0.2-1.5,0.2-3,0.2-4.6
				c0-0.6,0-1.2,0-1.9l2.2-0.1c0,0.7,0,1.3,0,2C156.9,254.9,156.9,256.5,156.7,258.1L156.7,258.1z M35.7,254.6l-1.8-1.2
				c1.3-1.8,2.6-3.6,4-5.4l1.7,1.4C38.3,251,37,252.8,35.7,254.6L35.7,254.6z M108.1,253.4c-0.8-2.1-1.4-4.3-1.8-6.5l2.1-0.4
				c0.4,2.1,1,4.2,1.7,6.2L108.1,253.4z M154,245c-0.4-2.1-0.9-4.2-1.6-6.2l2.1-0.7c0.7,2.1,1.2,4.3,1.6,6.5L154,245z M43.8,244.4
				l-1.6-1.5c1.5-1.6,3.1-3.2,4.7-4.8l1.5,1.6C46.8,241.2,45.3,242.8,43.8,244.4L43.8,244.4z M105.5,240.1c0-0.4,0-0.7,0-1.1
				c0-1.9,0.1-3.8,0.4-5.6l2.2,0.3c-0.2,1.8-0.3,3.6-0.3,5.4c0,0.3,0,0.7,0,1.1L105.5,240.1z M53.3,235.4l-1.4-1.7
				c1.7-1.4,3.5-2.8,5.3-4l1.3,1.8C56.7,232.7,55,234.1,53.3,235.4L53.3,235.4z M150,232.8c-1-1.9-2.1-3.7-3.3-5.5l1.8-1.3
				c1.3,1.8,2.5,3.8,3.5,5.8L150,232.8z M63.9,227.9l-1.1-1.9c1.9-1.1,3.8-2.2,5.8-3.3l1,1.9C67.7,225.7,65.8,226.8,63.9,227.9
				L63.9,227.9z M109.2,227.4l-2.1-0.6c0.6-2.2,1.3-4.3,2.1-6.4l2,0.8C110.5,223.2,109.8,225.3,109.2,227.4L109.2,227.4z
				 M142.5,222.5c-1.5-1.5-3.2-2.8-5-4l1.2-1.8c1.9,1.3,3.7,2.7,5.3,4.2L142.5,222.5z M75.5,221.9l-0.9-2c2.1-0.9,4.1-1.8,6.1-2.6
				l0.8,2C79.6,220.1,77.5,221,75.5,221.9L75.5,221.9z M87.6,217l-0.7-2.1c2.1-0.7,4.3-1.4,6.4-2l0.6,2.1
				C91.8,215.6,89.7,216.3,87.6,217L87.6,217z M131.9,215.5c-2-0.8-4-1.5-6.1-2.1l0.5-2.1c2.2,0.5,4.3,1.3,6.4,2.2L131.9,215.5z
				 M113.9,215.3l-1.9-1c0.4-0.8,0.8-1.5,1.2-2.3h-0.1v-2.2h1h0.3c0.3-0.5,0.5-0.9,0.8-1.4l1.9,1.1c-0.1,0.1-0.1,0.2-0.2,0.3
				c1,0,1.9,0.1,2.9,0.2l-0.2,2.2c-1.3-0.1-2.6-0.2-3.9-0.3C115,213.1,114.5,214.2,113.9,215.3L113.9,215.3z M100.2,213.5l-0.4-2.1
				c2.3-0.5,4.5-0.8,6.6-1.1l0.3,2.2C104.6,212.7,102.4,213.1,100.2,213.5L100.2,213.5z M120.6,204.1l-1.8-1.2
				c1.2-1.8,2.6-3.6,4-5.3l1.7,1.3C123.2,200.6,121.9,202.4,120.6,204.1L120.6,204.1z M128.7,193.8l-1.7-1.4
				c1.4-1.6,2.9-3.3,4.4-4.9l1.6,1.5C131.6,190.6,130.1,192.2,128.7,193.8L128.7,193.8z M137.6,184.2l-1.5-1.5
				c1.6-1.6,3.2-3.1,4.8-4.6l1.5,1.6C140.8,181.2,139.2,182.7,137.6,184.2L137.6,184.2z M147.2,175.3l-1.4-1.6
				c1.7-1.5,3.3-2.9,5-4.3l1.4,1.7C150.6,172.4,148.9,173.8,147.2,175.3z M157.3,166.8l-1.4-1.7c1.8-1.4,3.5-2.8,5.2-4.1l1.3,1.7
				C160.8,164.1,159.1,165.4,157.3,166.8L157.3,166.8z M167.8,158.8l-1.3-1.8c1.9-1.4,3.7-2.6,5.4-3.9l1.3,1.8
				C171.4,156.2,169.6,157.5,167.8,158.8L167.8,158.8z M178.6,151.3l-1.2-1.8c2-1.4,3.9-2.6,5.5-3.6l1.2,1.8
				C182.4,148.7,180.6,149.9,178.6,151.3z"/>
		</g>
		<g transform="translate(223.12 341.197)">
			
				<linearGradient id="SVGID_14_" gradientUnits="userSpaceOnUse" x1="108.6807" y1="-43.3702" x2="108.6833" y2="44.6374" gradientTransform="matrix(4.34 0 0 3.51 -483.885 -42.221)">
				<stop  offset="0" style="stop-color:#C397F2"/>
				<stop  offset="0.235" style="stop-color:#D183D3"/>
				<stop  offset="0.563" style="stop-color:#E36DAF"/>
				<stop  offset="0.83" style="stop-color:#EE5F99"/>
				<stop  offset="1" style="stop-color:#F25A91"/>
			</linearGradient>
			<path class="st17" d="M-13.5,105l-0.6-2.1c1-0.3,2.1-0.6,3.1-1l0.7,2.1C-11.4,104.3-12.4,104.6-13.5,105z"/>
		</g>
	</g>
	<path class="st18" d="M462.3,285.8l29.6,11.8l-3.5,12.6l13-4.2l8.4,29.7l30.5-79.4L462.3,285.8z"/>
	<path class="st19" d="M1501.2,545c-87.4,37.9-228.3,38.9-314.7,2.4c-86.4-36.6-85.6-96.9,1.8-134.8s228.3-38.9,314.7-2.4
		S1588.6,507.2,1501.2,545z"/>
	<g transform="translate(173.509 98.862)">
		<g transform="translate(48.34 248.074)" class="st20">
			<path class="st21" d="M156.3,171.3L156.3,171.3c-34.9-0.7-68.1-4.4-93.5-10.5c-29.8-7.1-46.8-17-46.6-27.3
				c0.2-10.2,17.3-19.4,47.1-25.3c25.5-5,58.8-7.4,93.7-6.6c34.9,0.7,68.1,4.4,93.5,10.5c29.8,7.1,46.8,17,46.6,27.3
				c-0.2,10.2-17.3,19.4-47.1,25.3C224.5,169.7,191.3,172,156.3,171.3z"/>
			<path class="st22" d="M294.3,139.2c0.1-10-16.5-19.8-45.7-26.7c-24.9-5.9-57.5-9.6-91.7-10.3c-34.2-0.7-66.8,1.6-91.8,6.5
				c-29.2,5.8-46,14.8-46.2,24.9c-0.2,10.1,16.5,19.8,45.7,26.8c24.9,5.9,57.5,9.6,91.7,10.3l0,0c34.3,0.7,67-1.6,92-6.5
				C277.7,158.4,294.4,149.3,294.3,139.2"/>
			<path class="st23" d="M291.4,139.1c0-9.8-16.3-19.3-44.8-26.1c-24.4-5.8-56.3-9.3-89.8-10c-33.5-0.7-65.5,1.6-89.9,6.4
				c-28.6,5.6-45.1,14.4-45.3,24.3s16.1,19.4,44.8,26.2c24.4,5.8,56.4,9.4,90,10.1l0,0c33.6,0.7,65.7-1.6,90.3-6.4
				C275.5,157.9,291.8,148.9,291.4,139.1"/>
			<path class="st24" d="M288.5,138.9c0-9.6-16-18.8-43.9-25.4c-24-5.7-55.2-9.1-88-9.8c-32.8-0.7-64.1,1.6-88.1,6.3
				c-28,5.5-44.2,14.2-44.3,23.8c-0.2,9.7,15.8,19,43.9,25.7c24,5.7,55.3,9.2,88.3,9.9l0,0c33,0.7,64.4-1.5,88.5-6.3
				C273.3,157.4,289.3,148.6,288.5,138.9"/>
			<path class="st25" d="M285.6,138.7c-0.1-9.3-15.8-18.4-43-24.8c-23.5-5.5-54.1-8.9-86.2-9.6c-32.1-0.6-62.7,1.5-86.2,6.1
				c-27.4,5.5-43.2,13.9-43.4,23.3s15.5,18.6,43,25.1c23.5,5.6,54.3,9,86.5,9.7l0,0c32.3,0.7,63.1-1.5,86.8-6.1
				C271.2,156.9,286.7,148.2,285.6,138.7"/>
			<path class="st26" d="M282.8,138.5c-0.2-9.1-15.5-17.9-42.1-24.2c-23-5.4-53-8.7-84.3-9.3c-31.5-0.6-61.4,1.5-84.4,6
				c-26.9,5.3-42.3,13.6-42.5,22.7c-0.2,9.2,15.1,18.2,42.1,24.6c23,5.5,53.2,8.9,84.8,9.5l0,0c31.7,0.7,61.9-1.5,85-6
				C269,156.5,284.1,147.8,282.8,138.5"/>
			<path class="st27" d="M279.9,138.3c-0.3-8.9-15.2-17.4-41.2-23.6c-22.5-5.3-51.8-8.5-82.5-9.1s-60,1.5-82.4,5.9
				c-26.3,5.2-41.4,13.3-41.6,22.2c-0.2,9,14.8,17.8,41.2,24.1c22.6,5.4,52.1,8.7,83.1,9.3l0,0c31,0.6,60.6-1.4,83.3-5.9
				C266.9,156,281.5,147.5,279.9,138.3"/>
			<path class="st28" d="M277,138.2c-0.3-8.6-15-17-40.3-22.9c-22.1-5.1-50.7-8.3-80.7-8.8c-30-0.6-58.6,1.5-80.6,5.8
				c-25.7,5-40.5,13-40.7,21.7c0,8.7,14.6,17.3,40.3,23.4c22.1,5.3,51,8.5,81.3,9.1l0,0c30.4,0.6,59.3-1.4,81.6-5.8
				C264.7,155.5,279,147.1,277,138.2"/>
			<path class="st29" d="M274.1,138c-0.4-8.4-14.7-16.5-39.4-22.3c-21.6-5-49.6-8.1-78.8-8.6c-29.3-0.6-57.3,1.4-78.7,5.6
				c-25.2,4.9-39.6,12.7-39.7,21.2c-0.1,8.6,14.1,17,39.3,23c21.6,5.1,49.9,8.3,79.6,8.9l0,0c29.7,0.6,58.1-1.4,79.8-5.6
				C262.6,155,276.4,146.8,274.1,138"/>
			<path class="st30" d="M271.2,137.8c-0.5-8.2-14.5-16.1-38.5-21.7c-21.1-4.9-48.4-7.8-77-8.4c-28.6-0.5-55.9,1.4-76.8,5.5
				c-24.6,4.8-38.7,12.4-38.8,20.7c-0.1,8.5,13.8,16.7,38.4,22.5c21.2,5,48.9,8.1,77.9,8.7l0,0c29,0.6,56.8-1.4,78.1-5.5
				C260.4,154.6,273.8,146.4,271.2,137.8"/>
			<path class="st31" d="M268.4,137.6c-0.6-7.9-14.2-15.6-37.6-21c-20.6-4.7-47.3-7.6-75.2-8.1s-54.5,1.4-74.9,5.4
				c-24,4.7-37.7,12.1-37.9,20.2c-0.1,8.2,13.5,16.2,37.5,21.9c20.7,4.9,47.8,7.9,76.1,8.5l0,0c28.4,0.6,55.5-1.3,76.3-5.4
				C258.3,154.1,271.2,146.1,268.4,137.6"/>
			<path class="st32" d="M265.5,137.4c-0.6-7.7-13.9-15.1-36.7-20.4c-20.1-4.6-46.2-7.4-73.4-7.9s-53.1,1.4-73.1,5.3
				c-23.4,4.6-36.8,11.8-37,19.7c0,8,13.2,15.8,36.7,21.4c20.2,4.8,46.7,7.8,74.4,8.3l0,0c27.7,0.6,54.3-1.3,74.6-5.3
				C256.1,153.6,268.7,145.7,265.5,137.4"/>
			<path class="st33" d="M262.6,137.3c-0.7-7.5-13.7-14.7-35.8-19.8c-19.7-4.5-45-7.2-71.5-7.7s-51.8,1.3-71.2,5.2
				c-22.9,4.5-35.9,11.5-36,19.2c-0.2,7.8,12.8,15.3,35.7,20.8c19.8,4.7,45.6,7.6,72.7,8.1l0,0c27.1,0.6,53-1.3,72.9-5.1
				C254,153.1,266.1,145.3,262.6,137.3"/>
			<path class="st34" d="M259.7,137.1c-0.8-7.2-13.4-14.3-34.9-19.2c-19.2-4.4-43.9-7-69.7-7.4c-25.8-0.5-50.4,1.3-69.3,5
				c-22.3,4.4-35,11.2-35.1,18.7c-0.1,7.6,12.4,15,34.8,20.3c19.3,4.6,44.5,7.4,70.9,7.9l0,0c26.4,0.5,51.7-1.2,71.1-5
				C251.8,152.7,263.5,145,259.7,137.1"/>
			<path class="st35" d="M256.8,136.9c-0.9-7-13.2-13.8-34-18.5c-18.7-4.3-42.8-6.8-67.9-7.2s-49,1.3-67.4,4.9
				c-21.7,4.3-34.1,10.9-34.2,18.2c-0.1,7.4,12.1,14.6,33.9,19.7c18.8,4.5,43.5,7.2,69.2,7.8l0,0c25.8,0.5,50.5-1.2,69.4-4.9
				C249.6,152.2,261,144.6,256.8,136.9"/>
			<path class="st36" d="M254,136.7c-0.9-6.8-12.9-13.3-33.1-17.9c-18.2-4.1-41.6-6.5-66-7c-24.4-0.4-47.7,1.3-65.6,4.8
				c-21.1,4.2-33.2,10.6-33.3,17.7c-0.1,7.2,11.8,14.2,33,19.2c18.4,4.4,42.4,7,67.5,7.6l0,0c25.1,0.5,49.2-1.2,67.6-4.8
				C247.5,151.7,258.4,144.3,254,136.7"/>
			<path class="st37" d="M251.1,136.5c-1-6.5-12.6-12.9-32.2-17.3c-17.7-4-40.5-6.3-64.2-6.7s-46.3,1.2-63.7,4.7
				c-20.6,4-32.2,10.3-32.4,17.2c-0.1,7,11.4,13.7,32,18.6c17.9,4.3,41.3,6.8,65.7,7.4l0,0c24.5,0.5,47.9-1.1,65.9-4.7
				C245.3,151.2,255.8,143.9,251.1,136.5"/>
			<path class="st38" d="M248.2,136.4c-1.1-6.3-12.4-12.4-31.3-16.7c-17.3-3.9-39.4-6.1-62.4-6.5s-44.9,1.2-61.8,4.5
				c-20,3.9-31.3,10-31.4,16.7c-0.1,6.8,11.1,13.4,31.2,18.1c17.4,4.1,40.2,6.7,64,7.2l0,0c23.8,0.5,46.7-1.1,64.2-4.5
				C243.2,150.7,253.2,143.5,248.2,136.4"/>
			<path class="st39" d="M245.3,136.2c-1.2-6.1-12.1-12-30.4-16c-16.8-3.8-38.2-5.9-60.5-6.3s-43.5,1.2-59.9,4.4
				c-19.4,3.8-30.4,9.7-30.5,16.2s10.8,12.9,30.2,17.6c17,4,39.1,6.5,62.3,7l0,0c23.2,0.5,45.4-1.1,62.4-4.4
				C241,150.3,250.7,143.2,245.3,136.2"/>
			<path class="st40" d="M242.5,136c-1.2-5.8-11.9-11.5-29.5-15.4c-16.3-3.6-37.1-5.7-58.7-6c-21.6-0.3-42.2,1.2-58.1,4.3
				c-18.8,3.6-29.5,9.4-29.6,15.7c-0.1,6.3,10.4,12.5,29.3,17c16.5,3.9,38.1,6.3,60.5,6.8l0,0c22.5,0.5,44.1-1,60.7-4.3
				C238.9,149.8,248.1,142.8,242.5,136"/>
			<path class="st41" d="M239.6,135.8c-1.3-5.6-11.6-11-28.6-14.8c-15.8-3.5-36-5.5-56.9-5.8c-20.9-0.3-40.8,1.1-56.2,4.2
				c-18.2,3.6-28.5,9.1-28.6,15.2c-0.1,6.1,10.1,12.1,28.4,16.5c16,3.8,37,6.1,58.8,6.6l0,0c21.8,0.4,42.9-1,58.9-4.2
				C236.7,149.3,245.5,142.5,239.6,135.8"/>
			<path class="st42" d="M236.7,135.6c-1.4-5.4-11.3-10.6-27.7-14.2c-15.4-3.4-34.9-5.3-55-5.6c-20.1-0.3-39.4,1.1-54.3,4
				c-17.7,3.6-27.7,9-27.8,14.9s9.8,11.7,27.5,15.9c15.5,3.7,35.9,5.9,57.1,6.4l0,0c21.2,0.4,41.6-1,57.2-4
				C234.6,148.8,242.9,142.1,236.7,135.6"/>
			<path class="st43" d="M233.8,135.5c-1.5-5.1-11.1-10.1-26.8-13.5c-14.9-3.2-33.7-5-53.2-5.3c-19.5-0.3-38.1,1.1-52.4,3.9
				c-17.1,3.4-26.7,8.5-26.8,14.2c-0.1,5.7,9.4,11.3,26.6,15.4c15.1,3.6,34.8,5.8,55.3,6.2l0,0c20.5,0.4,40.3-0.9,55.5-3.9
				C232.4,148.4,240.4,141.8,233.8,135.5"/>
			<path class="st44" d="M230.9,135.3c-1.5-4.9-10.8-9.7-25.9-12.9c-14.4-3.1-32.6-4.8-51.4-5.1c-18.8-0.3-36.7,1.1-50.6,3.8
				c-16.5,3.2-25.8,8.2-25.9,13.7c-0.1,5.5,9.1,10.9,25.7,14.8c14.6,3.5,33.7,5.6,53.6,6l0,0c19.9,0.4,39-0.9,53.7-3.8
				C230.3,147.9,237.8,141.4,230.9,135.3"/>
			<path class="st45" d="M228.1,135.1c-1.6-4.7-10.5-9.2-25-12.3c-13.9-3-31.5-4.6-49.5-4.8c-18-0.2-35.3,1-48.7,3.7
				c-15.9,3.1-24.9,7.9-25,13.2s8.8,10.5,24.8,14.3c14.1,3.4,32.7,5.4,51.9,5.8l0,0c19.2,0.4,37.8-0.9,52-3.7
				C228.1,147.4,235.2,141,228.1,135.1"/>
			<path class="st46" d="M225.2,134.9c-1.7-4.4-10.3-8.7-24.1-11.7c-13.4-2.9-30.3-4.4-47.7-4.6c-17.4-0.2-34,1-46.8,3.5
				c-15.4,3-24,7.6-24.1,12.7c-0.1,5.1,8.4,10.1,23.9,13.8c13.7,3.2,31.6,5.2,50.1,5.6l0,0c18.6,0.4,36.5-0.8,50.2-3.5
				C225.9,146.9,232.7,140.7,225.2,134.9"/>
			<path class="st47" d="M222.3,134.7c-1.8-4.2-10-8.3-23.2-11c-13-2.7-29.2-4.2-45.9-4.4c-16.7-0.2-32.6,1-44.9,3.4
				c-14.8,2.9-23,7.3-23.1,12.2s8.1,9.7,22.9,13.2c13.2,3.1,30.5,5,48.4,5.4l0,0c17.9,0.4,35.2-0.8,48.5-3.4
				C223.8,146.5,230.1,140.3,222.3,134.7"/>
			<path class="st48" d="M219.4,134.6c-1.8-4-9.8-7.8-22.3-10.4s-28.1-4-44-4.1c-16-0.2-31.2,1-43.1,3.3c-14.2,2.8-22.1,7-22.2,11.7
				c-0.1,4.7,7.8,9.3,22,12.7c12.7,3,29.4,4.8,46.7,5.2l0,0c17.3,0.4,34-0.8,46.8-3.3C221.6,146,227.5,140,219.4,134.6"/>
			<path class="st49" d="M216.5,134.4c-1.9-3.7-9.5-7.3-21.4-9.8c-12-2.5-26.9-3.8-42.2-3.9c-15.3-0.2-29.8,1-41.2,3.2
				c-13.6,2.6-21.1,6.7-21.2,11.2s7.4,8.9,21.1,12.1c12.3,2.9,28.3,4.7,44.9,5l0,0c16.6,0.3,32.7-0.8,45-3.2
				C219.5,145.5,224.9,139.6,216.5,134.4"/>
			<path class="st50" d="M213.7,134.2c-2-3.5-9.2-6.9-20.5-9.1c-11.5-2.3-25.8-3.5-40.4-3.7c-14.6-0.1-28.5,0.9-39.3,3.1
				c-13.1,2.6-20.3,6.5-20.4,10.7c-0.1,4.3,7.1,8.5,20.2,11.6c11.8,2.8,27.3,4.5,43.2,4.8l0,0c16,0.3,31.4-0.7,43.3-3
				C217.3,145,222.4,139.3,213.7,134.2"/>
			<path class="st51" d="M210.8,134c-2-3.3-9-6.4-19.6-8.5c-11-2.2-24.7-3.3-38.5-3.4s-27.1,0.9-37.4,2.9
				c-12.5,2.5-19.4,6.2-19.4,10.2c-0.1,4.1,6.7,8.1,19.3,11c11.3,2.7,26.2,4.3,41.5,4.6l0,0c15.3,0.3,30.2-0.7,41.6-2.9
				C215.2,144.6,219.8,138.9,210.8,134"/>
			<path class="st52" d="M207.9,133.8c-2.1-3-8.7-5.9-18.7-7.9c-10.6-2.1-23.5-3.1-36.7-3.2s-25.7,0.9-35.5,2.8
				c-11.9,2.3-18.4,5.9-18.5,9.7s6.4,7.7,18.4,10.5c10.9,2.6,25.1,4.1,39.7,4.4l0,0c14.6,0.3,28.9-0.7,39.8-2.8
				C213,144.1,217.2,138.5,207.9,133.8"/>
			<path class="st53" d="M205,133.7c-2.2-2.8-8.5-5.5-17.8-7.3c-10.1-1.9-22.4-2.9-34.9-3c-12.5-0.1-24.4,0.9-33.7,2.7
				c-11.3,2.2-17.5,5.6-17.6,9.2c-0.1,3.6,6.1,7.3,17.5,10c10.4,2.5,24,3.9,38,4.2l0,0c14,0.3,27.6-0.6,38.1-2.7
				C210.9,143.6,214.7,138.2,205,133.7"/>
			<path class="st54" d="M202.2,133.5c-2.3-2.6-8.2-5-16.9-6.6c-10.9-1.9-22-2.8-33-2.7c-11.8,0-23,0.8-31.8,2.6
				c-10.8,2.1-16.6,5.3-16.7,8.7s5.7,6.8,16.6,9.4c9.9,2.4,22.9,3.8,36.3,4l0,0c13.3,0.3,26.4-0.6,36.3-2.5
				C208.7,143.1,212.1,137.8,202.2,133.5"/>
			<path class="st55" d="M199.3,133.3c-2.3-2.3-7.9-4.5-16-6c-10.3-1.7-20.8-2.6-31.2-2.5c-10-0.1-20.1,0.7-29.9,2.4
				c-10.2,2-15.7,5-15.8,8.2c-0.1,3.2,5.4,6.4,15.7,8.9c9.5,2.2,21.9,3.6,34.5,3.8l0,0c12.7,0.3,25.1-0.6,34.6-2.4
				C206.6,142.7,209.5,137.5,199.3,133.3"/>
			<path class="st56" d="M196.4,133.1c-2.4-2.1-7.7-4.1-15.1-5.4c-9.7-1.6-19.5-2.3-29.4-2.3c-9.4-0.1-18.8,0.7-28.1,2.3
				c-9.6,1.9-14.8,4.7-14.8,7.7c-0.1,3,5.1,6,14.7,8.3c9,2.1,20.8,3.4,32.8,3.6l0,0c12,0.2,23.8-0.5,32.9-2.3
				C204.4,142.2,206.9,137.1,196.4,133.1"/>
			<path class="st57" d="M193.5,132.9c-2.5-1.9-7.4-3.6-14.2-4.8c-9.1-1.4-18.3-2.1-27.6-2c-8.8-0.1-17.5,0.7-26.2,2.2
				c-9,1.8-13.9,4.4-13.9,7.2c-0.1,2.8,4.7,5.6,13.8,7.8c8.5,2,19.7,3.2,31.1,3.4l0,0c11.4,0.2,22.6-0.5,31.1-2.2
				C202.2,141.7,204.4,136.8,193.5,132.9"/>
			<path class="st58" d="M190.6,132.8c-2.6-1.6-7.2-3.1-13.3-4.1c-8.5-1.3-17.1-1.9-25.7-1.8c-8.1-0.1-16.3,0.6-24.3,2.1
				c-8.5,1.7-12.9,4.1-13,6.7c-0.1,2.6,4.4,5.2,12.9,7.2c8.1,1.9,18.6,3,29.3,3.2l0,0c10.7,0.2,21.3-0.5,29.4-2.1
				C200.1,141.2,201.8,136.4,190.6,132.8"/>
			<path class="st59" d="M187.8,132.6c-2.6-1.4-6.9-2.7-12.3-3.5c-7.9-1.1-15.9-1.7-23.9-1.6c-7.5,0-15,0.6-22.4,1.9
				c-7.9,1.6-12,3.8-12.1,6.2c0,2.4,4.1,4.8,12,6.7c7.6,1.8,17.5,2.8,27.6,3l0,0c10.1,0.2,20-0.4,27.6-1.9
				C197.9,140.7,199.2,136,187.8,132.6"/>
			<path class="st60" d="M184.9,132.4c-3.7-1.4-7.5-2.4-11.4-2.9c-7.3-1-14.7-1.4-22.1-1.3c-6.9,0-13.8,0.6-20.6,1.8
				c-7.3,1.4-11.1,3.5-11.1,5.7s3.7,4.4,11.1,6.2c7.1,1.7,16.4,2.7,25.9,2.9l0,0c9.4,0.2,18.8-0.4,25.9-1.8
				C195.8,140.3,196.6,135.7,184.9,132.4"/>
			<path class="st61" d="M182,132.2c-3.4-1.1-7-1.8-10.5-2.3c-6.7-0.8-13.5-1.2-20.2-1.1c-6.3,0-12.5,0.6-18.7,1.7
				c-6.7,1.3-10.2,3.2-10.2,5.2s3.4,4,10.2,5.6c7.9,1.7,16,2.6,24.1,2.7l0,0c8.1,0.3,16.2-0.3,24.2-1.7
				C193.6,139.8,194.1,135.3,182,132.2"/>
			<path class="st62" d="M179.1,132c-12.4-2.9-32.4-3.3-44.8-0.9c-12.4,2.4-12.4,6.8,0,9.7c12.3,2.9,32.4,3.3,44.8,0.9
				S191.5,135,179.1,132"/>
		</g>
		<g transform="translate(329.922 29.166)">
			
				<linearGradient id="SVGID_15_" gradientUnits="userSpaceOnUse" x1="87.9914" y1="38.2436" x2="89.0454" y2="38.2436" gradientTransform="matrix(115.0167 0 0 150.5514 -23529.4844 -5561.9556)">
				<stop  offset="0" style="stop-color:#CFCFFF"/>
				<stop  offset="0.168" style="stop-color:#C0BCF4"/>
				<stop  offset="0.508" style="stop-color:#9A8BD8"/>
				<stop  offset="0.985" style="stop-color:#5E3DAC"/>
				<stop  offset="1" style="stop-color:#5D3BAB"/>
			</linearGradient>
			<path class="st63" d="M74.9,202.5c-0.2,6.2-15.6,10.9-20,12.6c-4.3,1.6-15.1,1.9-16.9,7.3c-2.8,8.3,17.4,11.3,12.9,18.8
				c-3.9,6.4-16.9,4.3-22.9,3.7c-8.4-0.9-17.1-1.6-23.8,4.5C1.4,252-4.1,261.3-8.5,261c-4.5-0.3-2.1-6.9-1.2-9.5
				C-8,246.2-5,240.8-6.1,235s-5.4-10.4-7.7-15.7c-1.2-2.9-12.5-29.8-2.9-26.2c3.6,1.4,15.7,17.3,17.7,4.5
				c1.3-8.1-1.7-16.1-2.8-24.1c-0.6-4.3-2.3-14,3.7-15.4c3.4-0.8,4.7,2.9,6.2,5.3c2.1,3.5,9.4,16.4,11,5.4
				c1.1-7.6-6.2-28.1,4.5-31.7c5.3-1.6,10.7,17.5,16.4,16.3c6.9-1.5,10.8-26.3,16.6-22.8c5.9,3.5,1.1,27.8,3.1,34.5
				c1.6,5.6,15-7.4,18.2-2.8c4.3,6.3-2.5,13.7-6.7,18s-12.9,7.9-14.7,14.1c-1.8,6.2,6.4,6.3,10.6,5.9c1.6-0.1,5.8-0.9,7,0.5
				C74.6,201.2,74.9,201.8,74.9,202.5z"/>
			<g transform="translate(0.041 36.004)" class="st64">
				<path class="st65" d="M57.4,165.1c-1.8,6.2,6.4,6.3,10.6,5.9c1.6-0.2,3.1-0.3,4.7-0.3c1.2-1,2-2.4,2.1-4c0-0.7-0.2-1.3-0.7-1.8
					c-1.2-1.4-5.4-0.6-7-0.5c-2.6,0.2-6.6,0.2-9-1.2C57.9,163.8,57.6,164.4,57.4,165.1z"/>
				<path class="st65" d="M60.1,130c-0.1,2,0.1,3.9,0.5,5.8c1.6,5.6,15-7.4,18.2-2.8c0.1,0.1,0.1,0.2,0.2,0.3c0.7-2.3,0.3-4.8-1-6.8
					C74.9,122.1,62.7,133.6,60.1,130z"/>
				<path class="st65" d="M38.8,193.2c-1.9,5.8,7.3,9,11.5,12.9c0.2-0.2,0.4-0.5,0.5-0.7c3.4-5.6-7.1-8.7-11.4-13.4
					C39.2,192.4,39,192.8,38.8,193.2z"/>
				<path class="st65" d="M-9,222.3c1.7-5.3,4.8-10.7,3.6-16.5c-0.2-0.9-0.4-1.7-0.7-2.5c-0.4,4.3-2.5,8.4-3.8,12.5
					c-0.7,2.3-2.8,7.9,0.1,9.2C-9.6,223.9-9.3,223-9,222.3z"/>
				<path class="st65" d="M-16,163.9c3.7,1.4,15.8,17.3,17.8,4.4c0.7-4.3,0.2-8.5-0.6-12.7c0.1,2.1,0.1,4.1-0.2,6.2
					c-2,12.8-14.1-3-17.8-4.4c-4.5-1.7-4.4,3.3-3,9.3C-19.7,164.3-18.6,163-16,163.9z"/>
			</g>
			<g transform="translate(13.828 46.524)">
				<path class="st65" d="M-22.5,214.5c0,0,0.3-0.3,0.8-0.9s1.2-1.5,2.2-2.6c0.9-1.1,2.1-2.4,3.3-4c1.3-1.6,2.6-3.4,4.1-5.3
					c1.5-2,3-4.1,4.7-6.4c1.6-2.3,3.3-4.8,5-7.3c0.8-1.3,1.7-2.6,2.6-3.9s1.7-2.7,2.5-4.1c1.8-2.7,3.3-5.6,5-8.4s3.2-5.7,4.8-8.5
					c1.5-2.9,3-5.7,4.4-8.4c1.3-2.8,2.6-5.5,3.9-8s2.3-5,3.3-7.3s2-4.3,2.7-6.2c0.8-1.9,1.4-3.5,2-4.8c1.1-2.7,1.8-4.2,1.8-4.2
					s-0.4,1.6-1.2,4.4c-0.4,1.4-0.9,3.1-1.5,5c-0.5,2-1.4,4.1-2.2,6.4c-0.9,2.3-1.7,4.9-2.9,7.5c-1.1,2.6-2.2,5.4-3.5,8.2
					c-1.4,2.8-2.7,5.7-4.2,8.6c-1.6,2.9-3.1,5.8-4.8,8.7c-1.7,2.8-3.4,5.7-5.2,8.5s-3.6,5.4-5.4,7.9c-1.8,2.6-3.6,4.9-5.4,7.2
					c-1.8,2.2-3.5,4.3-5.1,6.2s-3.2,3.6-4.6,5c-1.4,1.5-2.7,2.7-3.7,3.7C-21.2,213.4-22.5,214.5-22.5,214.5z"/>
			</g>
			<g transform="translate(58.294 84.771)">
				<path class="st65" d="M-28.1,119.1l0.8,0.1c0.5,0.1,1.2,0.2,2.1,0.3s1.9,0.2,3,0.3s2.3,0.1,3.4,0.2c1.2,0.1,2.3,0.1,3.5,0.1
					c1.1,0,2.1-0.1,3-0.1l3-0.1c0,0-1.2,0.2-2.9,0.6c-0.9,0.2-1.9,0.4-3,0.6c-1.2,0.2-2.3,0.4-3.5,0.4c-1.2,0.1-2.4,0.2-3.5,0.4
					c-1.1,0.1-2.2,0.1-3.1,0.1s-1.7,0.1-2.2,0.1h-0.8L-28.1,119.1z"/>
			</g>
			<g transform="translate(36.727 120.97)">
				<path class="st65" d="M-25,114.3l1,0.2c0.7,0.1,1.6,0.3,2.8,0.5c1.2,0.2,2.5,0.4,4,0.7c1.5,0.3,3,0.4,4.6,0.6
					c0.8,0.1,1.6,0.2,2.3,0.2l2.3,0.2l4,0.1c1.2,0,2.2-0.1,2.9-0.1s1.1,0,1.1,0s-0.4,0.1-1.1,0.2c-0.7,0.1-1.7,0.3-2.9,0.5
					c-1.1,0.1-2.5,0.2-4,0.3l-2.3,0.1c-0.8,0-1.6,0.1-2.4,0.1c-1.6,0-3.2,0-4.7-0.1c-1.5,0-2.9-0.1-4.1-0.2s-2.2-0.1-2.9-0.2
					l-1.1-0.1L-25,114.3z"/>
			</g>
			<g transform="translate(65.48 50.7)">
				<path class="st65" d="M-28.1,137.2c0,0-0.5-3.4-0.8-6.8c-0.2-1.7-0.3-3.4-0.3-4.7c0-0.5,0-1,0-1.6c0-0.4,0-0.6,0-0.6
					s0,0.2,0,0.6c0,0.5,0,1,0.1,1.5c0.2,1.3,0.5,2.9,0.8,4.6c0.7,3.3,1.6,6.6,1.6,6.6L-28.1,137.2z"/>
			</g>
			<g transform="translate(41.846 76.486)">
				<path class="st65" d="M-23.5,147.6c0,0-0.8-6.8-1.5-13.7c-0.3-3.4-0.7-6.8-0.9-9.4c-0.2-2.6-0.3-4.3-0.3-4.3s0.3,1.7,0.8,4.2
					c0.4,2.5,1.2,5.9,1.9,9.3c1.5,6.7,3,13.4,3,13.4L-23.5,147.6z"/>
			</g>
			<path class="st66" d="M27.9,244.9c6,0.6,19,2.7,22.9-3.7c4.6-7.4-15.6-10.4-12.9-18.8c1.8-5.4,12.6-5.7,16.9-7.3
				c4.4-1.7,19.9-6.4,20-12.6c0-0.7-0.2-1.3-0.7-1.8c-1.2-1.4-5.4-0.6-7-0.5c-4.1,0.3-12.2,0.2-10.6-5.8
				c-22.2,10.7-24,41.7-72.3,20.5c0.8,2.2,1.5,3.8,1.8,4.4c2.2,5.3,6.5,10,7.7,15.7c1.1,5.7-1.9,11.2-3.6,16.5
				c-0.8,2.6-3.3,9.2,1.2,9.5c4.5,0.3,9.9-9.1,12.7-11.6C10.8,243.3,19.5,244,27.9,244.9z"/>
		</g>
		<g transform="translate(205.106 0)">
			
				<linearGradient id="SVGID_16_" gradientUnits="userSpaceOnUse" x1="495.8775" y1="38.1723" x2="496.8273" y2="38.1723" gradientTransform="matrix(147.3913 0 0 223.4221 -67191.5391 -8297.4443)">
				<stop  offset="0" style="stop-color:#C397F2"/>
				<stop  offset="0.436" style="stop-color:#C7A9F6"/>
				<stop  offset="1" style="stop-color:#CEC8FD"/>
			</linearGradient>
			<path class="st67" d="M113.4,186.8c19.3,47.7,10.9,106.2-18.7,130.6c-29.6,24.4-69.3,5.6-88.6-42.1s-11-106.2,18.7-130.6
				S94.1,139.1,113.4,186.8z"/>
			<g transform="translate(42.802 41.822)">
				<path class="st2" d="M46.5,278.9l-0.3-1.8c-0.2-1.2-0.6-2.9-1-5.1c-0.5-2.2-1-4.8-1.7-7.8s-1.5-6.4-2.4-10.1s-2-7.6-3.1-11.8
					c-0.6-2.1-1.2-4.2-1.9-6.4c-0.6-2.2-1.2-4.4-2-6.7c-0.7-2.3-1.4-4.5-2.1-6.9c-0.7-2.3-1.6-4.6-2.3-7c-0.8-2.3-1.6-4.7-2.4-7.1
					c-0.9-2.3-1.8-4.7-2.6-7.1c-1.6-4.8-3.6-9.4-5.5-14c-0.5-1.1-0.9-2.3-1.4-3.4l-1.5-3.4c-1-2.2-1.9-4.4-2.9-6.6
					c-0.5-1.1-0.9-2.2-1.4-3.2s-1-2.1-1.5-3.1c-1-2.1-1.9-4.1-2.9-6c-1-1.9-1.8-3.9-2.8-5.7c-0.9-1.8-1.9-3.6-2.7-5.2
					c-0.9-1.7-1.7-3.3-2.5-4.8s-1.5-3-2.3-4.3c-1.5-2.7-2.8-5-3.9-7c-2.2-3.9-3.4-6.1-3.4-6.1s1.5,2,4.2,5.6c1.3,1.8,2.9,4,4.7,6.5
					s3.6,5.5,5.6,8.8c1,1.6,2.1,3.3,3.2,5.1c1.1,1.7,2,3.7,3.1,5.6c1.1,1.9,2.1,3.9,3.2,5.9c0.6,1,1.1,2,1.7,3.1
					c0.5,1.1,1,2.1,1.5,3.2c1,2.2,2.1,4.3,3.1,6.6c0.5,1.1,1.1,2.2,1.6,3.3l1.5,3.5c1.9,4.6,4,9.3,5.7,14.1c0.9,2.4,1.7,4.8,2.6,7.2
					c0.8,2.4,1.6,4.8,2.4,7.2c1.6,4.7,2.9,9.5,4.1,14.1c1.3,4.6,2.2,9.1,3.2,13.4c0.9,4.3,1.7,8.3,2.3,12.1c0.3,1.9,0.6,3.7,0.9,5.4
					c0.2,1.7,0.4,3.4,0.6,4.9c0.4,3.1,0.6,5.8,0.8,8C46.5,276.4,46.5,278.9,46.5,278.9z"/>
			</g>
			<g transform="translate(71.48 61.135)">
				<path class="st2" d="M-13.7,155.9l0.9-1.2c0.6-0.8,1.3-1.9,2.2-3.3c0.9-1.4,1.9-2.9,3-4.6c1-1.7,2.2-3.6,3.3-5.5
					c0.6-0.9,1.1-1.9,1.7-2.8c0.6-0.9,1.1-1.8,1.5-2.8c0.9-1.8,1.8-3.5,2.5-5c1.5-2.9,2.5-4.9,2.5-4.9L2.1,131
					c-0.5,1.6-1.2,3.4-1.9,5.3c-0.3,1-0.7,2-1.1,3s-0.9,2-1.3,3c-0.9,2-1.7,4.1-2.5,6c-0.9,1.9-1.7,3.6-2.4,5.1
					c-0.7,1.5-1.3,2.7-1.8,3.6l-0.7,1.3L-13.7,155.9z"/>
			</g>
			<g transform="translate(94.005 110.991)">
				<path class="st2" d="M-16.6,158.6l1.2-1.6c0.8-1,1.8-2.5,3.1-4.2c1.3-1.8,2.7-3.8,4.3-6.1c1.6-2.2,3.1-4.7,4.8-7.1
					c0.8-1.2,1.6-2.4,2.3-3.6c0.8-1.2,1.5-2.4,2.2-3.6c1.4-2.4,2.6-4.6,3.7-6.5c1-1.9,1.8-3.6,2.3-4.7c0.5-1.1,0.9-1.7,0.9-1.7
					s-0.3,0.7-0.7,1.9s-1.1,2.9-1.9,5c-0.9,2-1.9,4.3-3,6.8c-0.6,1.2-1.2,2.5-1.9,3.8c-0.6,1.3-1.3,2.6-2,3.9
					c-1.4,2.6-2.7,5.2-4.1,7.6c-1.3,2.4-2.6,4.6-3.7,6.5c-1.1,1.9-2,3.5-2.7,4.6c-0.7,1.1-1,1.7-1,1.7L-16.6,158.6z"/>
			</g>
			<g transform="translate(39.447 60.005)">
				<path class="st2" d="M7,133.9c0,0-4.3-1.5-8.5-3.4c-1.1-0.4-2.1-0.9-3-1.4c-0.5-0.2-1-0.4-1.4-0.7l-1.2-0.7
					c-0.3-0.2-0.7-0.4-1-0.6c-0.3-0.2-0.5-0.4-0.7-0.5c-0.4-0.3-0.6-0.5-0.6-0.5l0.7,0.4l0.8,0.4c0.3,0.2,0.7,0.3,1.1,0.5
					s0.8,0.3,1.3,0.5c0.4,0.2,0.9,0.3,1.4,0.5c1,0.3,2.1,0.7,3.2,1c4.3,1.3,8.8,2.2,8.8,2.2L7,133.9z"/>
			</g>
			<g transform="translate(48.127 116.886)">
				<path class="st2" d="M23,133.4l-5.3-2.2c-3.2-1.3-7.4-3.1-11.6-4.9c-2.1-0.9-4.2-1.8-6.2-2.7c-1-0.4-1.9-0.8-2.8-1.2l-2.5-1.2
					l-5.2-2.5c0,0,2.2,0.7,5.4,1.8c0.8,0.3,1.7,0.6,2.6,0.9s1.9,0.6,3,0.9c2.1,0.6,4.3,1.2,6.5,1.9c4.4,1.3,8.8,2.4,12.1,3.4
					l5.5,1.5L23,133.4z"/>
			</g>
		</g>
		
			<linearGradient id="SVGID_17_" gradientUnits="userSpaceOnUse" x1="907.2122" y1="38.146" x2="907.8926" y2="38.146" gradientTransform="matrix(316.9526 0 0 130.8049 -275510.6875 -4653.2969)">
			<stop  offset="0" style="stop-color:#C397F2"/>
			<stop  offset="0.231" style="stop-color:#B086E4"/>
			<stop  offset="0.697" style="stop-color:#7F5AC3"/>
			<stop  offset="1" style="stop-color:#5D3BAB"/>
		</linearGradient>
		<path class="st68" d="M256.8,380.7c-20.5,9.1-42.3,16.5-64.4,10c-17.6-5.2-33.2-12.3-46.8-24.6c-18.9-17.1-21.5-32.8-46.6-42.6
			c-21.7-8.4-52.9-1-76.4-20.1c34.2,11.7,65.5-25.5,99-23.8c35.2,1.8,49.6,31.9,76,50.5c19.3,13.6,43.3,17.7,66.5,18.6
			c8.7,0.3,25.8-3.6,32.3,4.7c9.1,11.6-21.5,25.3-31.6,26.6c-5.4,0.7-10.9-0.3-14.7,5.1L256.8,380.7z"/>
		<g transform="translate(66.673 175.782)" class="st1">
			<path class="st2" d="M183.4,188.4l6.8-4.3c-1.5,0.7-3.1,1.3-4.6,2C184.7,186.8,184,187.5,183.4,188.4z"/>
			<path class="st2" d="M210.2,179.6c-4.8,0.2-9.5,0.7-12.8,0.6c-23.2-0.9-47.1-5-66.5-18.6c-26.4-18.6-40.8-48.7-76-50.5
				c-13.9-0.7-27.5,5.3-41,11.8c6.6,0.8,12.8,1.9,18.4,4.1c25.2,9.8,27.8,25.5,46.6,42.6c13.6,12.3,29.2,19.5,46.8,24.6
				c20.5,6,40.7,0.1,59.8-8c3.5-2.8,8-2.2,12.5-2.8C202.2,182.6,206.3,181.3,210.2,179.6z"/>
		</g>
		<g transform="translate(56.578 39.937)">
			
				<linearGradient id="SVGID_18_" gradientUnits="userSpaceOnUse" x1="755.392" y1="38.1589" x2="756.2609" y2="38.1589" gradientTransform="matrix(248.2285 0 0 211.4284 -187494.7031 -7847.207)">
				<stop  offset="0" style="stop-color:#F25A91"/>
				<stop  offset="5.100000e-02" style="stop-color:#EE5E98"/>
				<stop  offset="0.336" style="stop-color:#DB77BF"/>
				<stop  offset="0.598" style="stop-color:#CE88DB"/>
				<stop  offset="0.828" style="stop-color:#C593EC"/>
				<stop  offset="1" style="stop-color:#C397F2"/>
			</linearGradient>
			<path class="st69" d="M147.3,145.1c10.9,1.7,15.6,30.1,17.5,38.3c1.9,7.9-0.2,27.2,8.9,31.6c14.1,6.8,24.1-28.1,36.1-18.3
				c10.3,8.4,3.6,30.9,1.1,41.3c-3.5,14.6-6.8,29.8,2.3,43.1c3.9,5.6,19,17.4,17.5,25.2c-1.5,7.9-12.6,2.1-17,0
				c-9-4.2-17.8-10.9-28.2-10.3c-10.4,0.6-19.6,7.1-29.5,9.8c-5.3,1.5-55.4,15.1-46.8-1.1c3.3-6.2,34.2-23.8,12-30.4
				c-14-4.1-28.8-0.8-43.1-0.7c-7.8,0-25.2,0.8-26.2-10.2c-0.6-6.2,6.3-7.6,10.9-9.7c6.6-2.9,31.1-12.7,12.1-18.1
				c-13.1-3.7-51,4.4-54.8-15.4c-1.9-9.7,33.3-14.8,32.3-25.1c-1-12.5-43.9-25.2-36.4-34.8s49.3,4.6,61.6,2.6
				c10.2-1.5-9.5-28.2-0.7-32.7c12.1-6.1,23.6,7.7,30.2,16c6.7,8.4,10.9,24.6,21.3,29.2c10.5,4.6,12.6-9.9,13-17.3
				c0.2-2.9-0.3-10.5,2.5-12.3C145,145.2,146.1,144.9,147.3,145.1z"/>
			<g transform="translate(68.967 0.002)" class="st64">
				<path class="st65" d="M71.7,175.4c10.5,4.6,12.6-9.9,13-17.3c0.1-1.8,0-5.5,0.5-8.4c-1.9-2.6-4-4.3-6.5-4.7
					c-1.2-0.2-2.3,0.1-3.3,0.8c-2.8,1.8-2.4,9.4-2.5,12.3c-0.2,4.6-1.1,11.7-4.2,15.6C69.7,174.4,70.6,175,71.7,175.4z"/>
				<path class="st65" d="M10.5,162.6c4.3,0.6,8,0.8,10.4,0.4c10.2-1.5-9.6-28.2-0.7-32.7c0.2-0.1,0.3-0.1,0.5-0.2
					c-3.9-1.8-8.4-1.7-12.2,0.2C0.1,134.5,17.4,158.8,10.5,162.6z"/>
				<path class="st65" d="M116.9,214.9c9.8,4.7,17.6-10.7,25.5-17.2c-0.4-0.4-0.7-0.7-1.1-1.1c-9.1-7.4-17,10.5-26.3,17
					C115.6,214.1,116.2,214.5,116.9,214.9z"/>
				<path class="st65" d="M157,306.2c-9-4.2-17.8-10.9-28.2-10.3c-1.6,0.1-3.1,0.3-4.6,0.7c7.5,1.7,14.2,6.4,21.1,9.6
					c3.9,1.9,13.2,6.8,16.2,2.1C159.7,307.5,158.1,306.7,157,306.2z"/>
				<path class="st65" d="M52.4,304.7c3.3-6.2,34.2-23.8,12-30.4c-7.4-2.2-15-2.3-22.6-1.9c3.7,0.2,7.3,0.9,10.8,1.9
					c22.2,6.6-8.7,24.2-12,30.4c-4,7.5,4.7,8.6,15.7,7.4C52.1,311.3,50,309.1,52.4,304.7z"/>
			</g>
			<g transform="translate(79.088 71.903)">
				<path class="st65" d="M151.7,234.3c0,0-0.5-0.6-1.4-1.6c-0.9-1.1-2.3-2.5-4-4.4c-1.8-1.9-3.9-4.2-6.4-6.7
					c-2.5-2.6-5.3-5.4-8.4-8.5c-1.5-1.6-3.2-3.1-4.9-4.7c-1.7-1.6-3.4-3.4-5.3-5c-3.7-3.4-7.6-7-11.8-10.6c-2.1-1.8-4.1-3.7-6.3-5.5
					c-2.2-1.8-4.4-3.6-6.6-5.5l-3.3-2.8c-1.1-0.9-2.3-1.8-3.4-2.7l-6.9-5.4c-4.6-3.6-9.4-7-13.9-10.5c-4.7-3.3-9.3-6.6-13.8-9.7
					c-4.6-3-9-5.9-13.2-8.7c-1.1-0.7-2.1-1.4-3.1-2.1c-1-0.6-2.1-1.3-3.1-1.9l-5.9-3.6c-1.9-1.2-3.7-2.3-5.4-3.3
					c-0.8-0.5-1.7-1.1-2.5-1.6s-1.6-0.9-2.4-1.4c-3.1-1.8-5.8-3.4-8-4.7c-4.4-2.6-6.9-4.2-6.9-4.2s2.7,1.3,7.4,3.3
					c2.4,1.1,5.2,2.3,8.5,3.8c3.3,1.4,6.9,3.4,10.8,5.4c3.9,2.1,8.3,4.1,12.6,6.8c4.4,2.6,9,5.2,13.7,8.2c4.6,3.1,9.5,6.1,14.2,9.4
					c4.7,3.5,9.5,6.8,14.2,10.4c2.3,1.8,4.6,3.7,6.9,5.5c1.2,0.9,2.3,1.8,3.4,2.8s2.2,1.9,3.3,2.9c2.2,1.9,4.4,3.8,6.5,5.7
					s4.2,3.9,6.2,5.7c4.1,3.7,7.8,7.6,11.4,11.2c3.5,3.6,6.8,7.2,9.7,10.5c1.4,1.7,2.8,3.3,4.1,4.8s2.5,3.1,3.6,4.5
					c2.3,2.8,4.1,5.3,5.6,7.4C150.1,231.8,151.7,234.3,151.7,234.3z"/>
			</g>
			<g transform="translate(142.681 71.903)">
				<path class="st65" d="M-3.5,152.2c0,0,0.1-0.5,0.4-1.4c0.3-0.8,0.6-2.1,1-3.6s0.8-3.3,1.3-5.2c0.4-1.9,0.9-4,1.2-6
					c0.3-2.1,0.8-4.1,1-6.1c0.2-2,0.5-3.8,0.6-5.4c0.2-3.2,0.4-5.3,0.4-5.3s0.2,2.1,0.5,5.3c0.1,1.7,0.1,3.6,0.2,5.6s0,4.1,0,6.3
					c0,2.1-0.2,4.3-0.3,6.3c-0.2,2-0.3,3.9-0.5,5.5c-0.2,1.6-0.3,2.9-0.4,3.9c-0.1,0.9-0.2,1.5-0.2,1.5L-3.5,152.2z"/>
			</g>
			<g transform="translate(201.483 105.716)">
				<path class="st65" d="M-11.3,158.5c0,0,0.2-0.7,0.6-1.8c0.4-1.2,1-2.8,1.6-4.8c0.7-2,1.4-4.3,2.1-6.9c0.8-2.5,1.4-5.2,2.2-8
					c0.4-1.4,0.6-2.7,1-4.1c0.3-1.4,0.6-2.7,0.9-4c0.5-2.6,0.8-5,1.2-7.1c0.1-1,0.2-2,0.3-2.9s0.1-1.6,0.2-2.2l0.2-1.9
					c0,0,0,0.7,0.1,1.9c0,0.6,0.1,1.4,0.1,2.2c0,0.9,0.1,1.8,0.1,2.9c-0.1,2.1-0.2,4.6-0.3,7.3c-0.1,1.3-0.3,2.7-0.4,4.1
					c-0.2,1.4-0.2,2.8-0.5,4.2c-0.4,2.8-0.7,5.6-1.2,8.3c-0.4,2.6-0.9,5.1-1.3,7.2c-0.4,2.1-0.8,3.9-1,5.1c-0.3,1.2-0.4,1.9-0.4,1.9
					L-11.3,158.5z"/>
			</g>
			<g transform="translate(84.244 87.86)">
				<path class="st65" d="M28.4,119.9c0,0-6.1,0.1-12.2-0.1c-1.5,0-3-0.1-4.5-0.2c-0.7-0.1-1.4-0.1-2-0.2c-0.7-0.1-1.3-0.1-1.8-0.2
					c-0.5,0-1-0.1-1.5-0.2s-0.9-0.2-1.2-0.2c-0.6-0.1-1-0.2-1-0.2s0.4,0,1,0.1c0.3,0,0.7,0.1,1.2,0.1s1,0.1,1.5,0h1.8
					c0.6,0,1.3-0.1,2-0.1c1.4-0.1,2.9-0.1,4.4-0.3c6-0.5,12-1.2,12-1.2L28.4,119.9z"/>
			</g>
			<g transform="translate(124.115 133.162)">
				<path class="st65" d="M47.9,116.7c0,0-3.1-0.1-7.7-0.2s-10.7-0.2-16.9-0.4c-3.1-0.1-6.1-0.2-9-0.3s-5.6-0.2-7.9-0.4
					c-4.6-0.3-7.6-0.5-7.6-0.5l7.7-0.4c2.3-0.1,5-0.3,7.8-0.5c2.9-0.2,5.9-0.5,9-0.7c6.1-0.5,12.2-1,16.8-1.4l7.6-0.7L47.9,116.7z"
					/>
			</g>
			<path class="st66" d="M210.9,237.9c2.5-10.4,9.2-32.9-1.1-41.3c-12-9.8-22.1,25.1-36.1,18.3c-9-4.4-7-23.6-8.9-31.6
				c-1.9-8.2-6.6-36.5-17.5-38.3c-1.2-0.2-2.3,0.1-3.3,0.8c-2.8,1.8-2.4,9.4-2.5,12.3c-0.4,7.4-2.5,21.7-12.7,17.4
				c13.7,41.6,67.9,52.1,19.1,132.3c4.1-1,7.1-1.8,8.2-2.1c9.9-2.7,19.1-9.2,29.5-9.8s19.2,6.1,28.2,10.3c4.4,2.1,15.5,8,17,0
				c1.5-7.8-13.6-19.6-17.5-25.2C204.1,267.7,207.4,252.5,210.9,237.9z"/>
		</g>
	</g>
	<g transform="translate(1144.034 422.842)" class="st20">
		<path class="st21" d="M212,124.4L212,124.4c-40.7-0.8-79.4-3.9-109.1-8.7c-34.8-5.6-54.7-13.3-54.6-21C48.4,87,68.4,80.2,103,76
			c29.7-3.6,68.5-5.1,109.2-4.2c40.7,0.8,79.4,3.9,109.1,8.7c34.8,5.6,54.7,13.3,54.5,21c-0.1,7.7-20,14.5-54.7,18.7
			C291.5,123.8,252.7,125.3,212,124.4z"/>
		<path class="st22" d="M373.7,101.4c-0.1-7.6-19.8-15.1-54.1-20.6c-29.4-4.7-67.7-7.7-107.9-8.6c-40.3-0.8-78.6,0.6-108,4.1
			c-34.3,4.1-54,10.7-54.2,18.3c-0.1,7.6,19.6,15.1,54.1,20.6c29.5,4.7,67.9,7.7,108.3,8.6l0,0c40.4,0.8,79-0.6,108.5-4.1
			C355.2,115.7,374.6,109,373.7,101.4"/>
		<path class="st23" d="M371.4,101.2c-0.4-7.4-19.9-14.7-53.6-20.1c-29.2-4.6-67.1-7.6-106.8-8.4c-39.8-0.8-77.8,0.6-106.9,4
			c-34,4-53.5,10.5-53.6,17.9s19.3,14.8,53.5,20.2c29.3,4.6,67.5,7.6,107.6,8.5l0,0c40.1,0.8,78.4-0.6,107.7-4
			C354.5,115.4,373.5,108.7,371.4,101.2"/>
		<path class="st24" d="M369.2,101.1c-0.6-7.2-19.9-14.4-53.1-19.6c-28.9-4.5-66.4-7.4-105.7-8.2c-39.4-0.8-76.9,0.6-105.7,3.9
			c-33.7,3.9-53,10.3-53.1,17.5c-0.1,7.3,19.1,14.5,53,19.8c29.1,4.5,67.1,7.5,106.9,8.3l0,0c39.8,0.8,77.9-0.6,107-3.9
			C353.9,115,372.3,108.5,369.2,101.1"/>
		<path class="st25" d="M367,101c-0.9-7.1-20-14.1-52.6-19.2c-28.7-4.4-65.8-7.2-104.5-8c-39-0.8-76.1,0.6-104.6,3.8
			C72,81.4,52.9,87.7,52.8,94.8c-0.1,7.1,18.9,14.2,52.5,19.4c28.9,4.5,66.6,7.4,106.1,8.2l0,0c39.6,0.8,77.3-0.6,106.3-3.8
			C353.2,114.6,371.2,108.2,367,101"/>
		<path class="st26" d="M364.8,100.8c-1.1-6.9-20-13.8-52.1-18.7c-28.4-4.4-65.1-7.1-103.4-7.9c-38.5-0.8-75.2,0.5-103.4,3.7
			c-33.1,3.7-51.9,9.8-52,16.8s18.7,13.9,52,19c28.7,4.4,66.2,7.2,105.4,8l0,0c39.3,0.8,76.8-0.6,105.5-3.7
			C352.5,114.3,370,108,364.8,100.8"/>
		<path class="st27" d="M362.6,100.7c-1.4-6.7-20.1-13.4-51.6-18.2c-28.2-4.3-64.4-6.9-102.2-7.7c-38.1-0.8-74.4,0.5-102.3,3.6
			C73.7,82,55.1,88,55,94.8c-0.1,6.8,18.5,13.6,51.4,18.6c28.5,4.3,65.8,7.1,104.7,7.9l0,0c39,0.8,76.3-0.6,104.8-3.6
			C351.9,113.9,368.9,107.7,362.6,100.7"/>
		<path class="st28" d="M360.3,100.6c-1.6-6.5-20.1-13.1-51.1-17.7c-27.9-4.2-63.8-6.8-101.1-7.5c-37.7-0.8-73.5,0.5-101.1,3.5
			c-32.4,3.5-50.8,9.4-50.9,16C56,101.5,74.4,108.1,107,113c28.3,4.2,65.3,7,104,7.8l0,0c38.7,0.8,75.7-0.5,104.1-3.5
			C351.2,113.6,367.8,107.5,360.3,100.6"/>
		<path class="st29" d="M358.1,100.4c-1.9-6.4-20.2-12.8-50.6-17.3c-27.7-4.1-63.1-6.6-99.9-7.3c-37.2-0.7-72.7,0.5-100,3.4
			c-32.1,3.5-50.3,9.2-50.4,15.6c-0.1,6.5,18.1,13,50.4,17.8c28.1,4.1,64.9,6.8,103.2,7.6l0,0c38.4,0.8,75.2-0.5,103.3-3.4
			C350.6,113.2,366.6,107.2,358.1,100.4"/>
		<path class="st30" d="M355.9,100.3c-2.1-6.2-20.2-12.4-50.1-16.8c-27.5-4-62.4-6.5-98.8-7.2c-36.8-0.7-71.8,0.5-98.8,3.3
			C76.4,83,58.5,88.5,58.4,94.8c-0.1,6.4,17.8,12.7,49.9,17.4c27.9,4.1,64.5,6.7,102.5,7.5l0,0c38.1,0.8,74.6-0.5,102.6-3.3
			C349.9,112.9,365.5,107,355.9,100.3"/>
		<path class="st31" d="M353.7,100.2c-2.4-6-20.3-12.1-49.6-16.3c-27.2-3.9-61.8-6.3-97.6-7c-36.3-0.7-71,0.4-97.7,3.2
			C77.3,83.4,59.6,88.8,59.5,95s17.6,12.4,49.3,17c27.8,4,64,6.6,101.8,7.4l0,0c37.8,0.8,74.1-0.5,101.9-3.2
			C349.3,112.5,364.3,106.7,353.7,100.2"/>
		<path class="st32" d="M351.5,100c-2.6-5.9-20.3-11.8-49.1-15.9c-27-3.8-61.1-6.1-96.5-6.8c-35.9-0.7-70.1,0.4-96.5,3.1
			c-31.2,3.2-48.7,8.5-48.8,14.5S78,107,109.4,111.5c27.6,3.9,63.6,6.5,101.1,7.2l0,0c37.5,0.8,73.5-0.4,101.1-3.1
			C348.6,112.1,363.2,106.5,351.5,100"/>
		<path class="st33" d="M349.2,99.9c-2.9-5.7-20.4-11.4-48.6-15.4c-26.7-3.8-60.5-6-95.3-6.7c-35.5-0.7-69.3,0.4-95.4,3
			C79,84,61.8,89.1,61.7,94.9c-0.1,5.9,17.2,11.8,48.3,16.2c27.4,3.8,63.2,6.3,100.3,7.1l0,0c37.2,0.8,73-0.4,100.4-3
			C347.9,111.8,362,106.2,349.2,99.9"/>
		<path class="st34" d="M347,99.7c-3.2-5.5-20.4-11.1-48.1-14.9c-26.5-3.7-59.8-5.8-94.2-6.5c-35-0.7-68.4,0.4-94.2,2.9
			c-30.5,3-47.6,8-47.7,13.7c-0.1,5.7,17,11.5,47.8,15.8c27.2,3.7,62.7,6.2,99.6,7l0,0c36.9,0.8,72.5-0.4,99.7-2.8
			C347.3,111.4,360.9,105.9,347,99.7"/>
		<path class="st35" d="M344.8,99.6c-3.4-5.3-20.5-10.8-47.6-14.5c-26.2-3.6-59.1-5.7-93.1-6.3c-34.6-0.7-67.6,0.3-93.1,2.8
			c-30.2,3-47,7.9-47.1,13.4c-0.1,5.6,16.8,11.1,47.2,15.4c27,3.6,62.3,6.1,98.9,6.8l0,0c36.6,0.8,71.9-0.4,98.9-2.7
			C346.6,111.1,359.7,105.7,344.8,99.6"/>
		<path class="st36" d="M342.6,99.5c-3.7-5.2-20.5-10.4-47.1-14c-26-3.5-58.5-5.5-91.9-6.1c-34.1-0.6-66.7,0.3-91.9,2.7
			C81.7,84.9,65.1,89.6,65,95s16.6,10.8,46.7,14.9c26.8,3.6,61.9,5.9,98.2,6.7l0,0c36.3,0.7,71.4-0.3,98.2-2.6
			C346,110.8,358.6,105.4,342.6,99.5"/>
		<path class="st37" d="M340.4,99.3c-3.9-5-20.6-10.1-46.7-13.5c-25.7-3.4-57.8-5.3-90.8-6c-33.7-0.6-65.9,0.3-90.8,2.6
			C82.5,85.2,66.1,89.7,66,95c-0.1,5.3,16.3,10.5,46.2,14.5c26.6,3.5,61.4,5.8,97.4,6.5l0,0c36,0.7,70.8-0.3,97.5-2.5
			C345.3,110.4,357.4,105.2,340.4,99.3"/>
		<path class="st38" d="M338.1,99.2c-4.1-4.8-20.6-9.7-46.1-13.1c-25.5-3.3-57.2-5.2-89.6-5.8c-33.3-0.6-65,0.3-89.6,2.5
			C83.5,85.5,67.4,89.9,67.3,95c-0.1,5.1,16.1,10.2,45.7,14.1c26.4,3.4,61,5.7,96.7,6.4l0,0c35.7,0.7,70.3-0.3,96.7-2.4
			C344.7,110.1,356.3,104.9,338.1,99.2"/>
		<path class="st39" d="M335.9,99.1c-4.4-4.7-20.7-9.4-45.7-12.6c-25.2-3.2-56.5-5-88.5-5.6c-32.8-0.6-64.2,0.3-88.5,2.4
			c-29,2.6-44.9,6.9-45,11.8s15.9,9.9,45.1,13.7c26.2,3.3,60.6,5.5,96,6.3l0,0c35.4,0.7,69.7-0.2,96-2.3
			C344,109.7,355.1,104.7,335.9,99.1"/>
		<path class="st40" d="M333.7,98.9c-4.7-4.5-20.7-9.1-45.2-12.1c-25-3.1-55.8-4.9-87.3-5.4c-32.4-0.6-63.3,0.2-87.3,2.3
			c-28.6,2.5-44.4,6.7-44.5,11.4c-0.1,4.8,15.7,9.6,44.6,13.3c26.1,3.2,60.1,5.4,95.3,6.1l0,0c35.1,0.7,69.2-0.2,95.3-2.2
			C343.3,109.4,354,104.4,333.7,98.9"/>
		<path class="st41" d="M331.5,98.8c-4.9-4.3-20.8-8.7-44.7-11.6c-24.8-3-55.2-4.7-86.2-5.3c-31.9-0.6-62.5,0.2-86.2,2.2
			c-28.3,2.4-43.8,6.4-43.9,11c-0.1,4.7,15.5,9.4,44.1,12.9c25.9,3.2,59.7,5.3,94.5,6l0,0c34.8,0.7,68.7-0.2,94.5-2.1
			C342.7,109,352.8,104.2,331.5,98.8"/>
		<path class="st42" d="M329.3,98.7c-5.2-4.1-20.8-8.4-44.2-11.2c-24.5-2.9-54.5-4.6-85-5.1c-31.5-0.6-61.6,0.2-85,2.2
			c-28,2.3-43.3,6.2-43.4,10.6c-0.1,4.5,15.3,9,43.6,12.5c25.7,3.1,59.3,5.2,93.8,5.9l0,0c34.5,0.7,68.1-0.1,93.8-2
			C342,108.7,351.7,103.9,329.3,98.7"/>
		<path class="st43" d="M327,98.5c-5.4-4-20.9-8-43.7-10.7c-24.3-2.9-53.8-4.4-83.9-4.9c-31.1-0.6-60.8,0.2-83.9,2.1
			c-27.7,2.2-42.8,6-42.8,10.3c-0.1,4.3,15.1,8.7,43,12.1c25.5,3,58.8,5,93.1,5.7l0,0c34.3,0.7,67.6-0.1,93.1-1.9
			C341.4,108.3,350.5,103.7,327,98.5"/>
		<path class="st44" d="M324.8,98.4c-5.7-3.8-20.9-7.7-43.2-10.2c-24-2.8-53.2-4.2-82.7-4.8c-30.6-0.5-59.9,0.1-82.7,2
			c-27.4,2.1-42.2,5.7-42.3,9.9c-0.1,4.2,14.8,8.4,42.5,11.7c25.3,2.9,58.4,4.9,92.4,5.6l0,0c34,0.7,67-0.1,92.3-1.8
			C340.7,108,349.4,103.4,324.8,98.4"/>
		<path class="st45" d="M322.6,98.2c-5.9-3.6-21-7.3-42.7-9.8c-23.8-2.7-52.5-4.1-81.6-4.6c-30.2-0.5-59,0.1-81.6,1.9
			c-27.1,2-41.7,5.5-41.8,9.5c-0.1,4,14.6,8.1,42,11.3c25.1,2.8,58,4.8,91.6,5.5l0,0c33.7,0.7,66.5,0,91.6-1.7
			C340.1,107.7,348.3,103.2,322.6,98.2"/>
		<path class="st46" d="M320.4,98.1c-6.2-3.4-21-7-42.2-9.3c-23.5-2.6-51.8-3.9-80.4-4.4c-29.7-0.5-58.2,0.1-80.4,1.8
			c-26.7,2-41.1,5.3-41.2,9.1c-0.1,3.8,14.4,7.8,41.5,10.9c24.9,2.8,57.5,4.6,90.9,5.3l0,0c33.4,0.7,66,0,90.9-1.6
			C339.4,107.3,347.1,102.9,320.4,98.1"/>
		<path class="st47" d="M318.2,98c-6.4-3.3-21.1-6.6-41.7-8.8c-23.3-2.5-51.2-3.8-79.3-4.2c-29.3-0.5-57.3,0.1-79.3,1.7
			c-26.4,1.9-40.6,5.1-40.7,8.7c-0.1,3.7,14.2,7.5,40.9,10.5c24.7,2.7,57.1,4.5,90.2,5.2l0,0c33.1,0.7,65.4,0,90.1-1.5
			C338.7,107,346,102.6,318.2,98"/>
		<path class="st48" d="M315.9,97.8c-6.7-3.1-21.1-6.3-41.2-8.4c-23-2.4-50.5-3.6-78.2-4.1c-28.9-0.5-56.5,0-78.1,1.6
			c-26.1,1.8-40.1,4.8-40.1,8.3c-0.1,3.5,14,7.2,40.4,10.1c24.6,2.6,56.7,4.4,89.5,5.1l0,0c32.8,0.7,64.9,0.1,89.4-1.4
			C338.1,106.7,344.8,102.4,315.9,97.8"/>
		<path class="st49" d="M313.7,97.7c-6.9-2.9-21.2-6-40.7-7.9c-22.8-2.3-49.9-3.4-77-3.9c-28.4-0.5-55.6,0-77,1.5
			c-25.8,1.7-39.5,4.6-39.6,8s13.8,6.9,39.9,9.7c24.4,2.5,56.2,4.2,88.7,4.9l0,0c32.5,0.7,64.3,0.1,88.7-1.3
			C337.4,106.3,343.7,102.1,313.7,97.7"/>
		<path class="st50" d="M311.5,97.6c-7.2-2.8-21.2-5.6-40.2-7.4c-22.6-2.2-49.2-3.3-75.9-3.7c-28-0.5-54.8,0-75.8,1.4
			c-25.5,1.6-39,4.4-39.1,7.6c-0.1,3.2,13.5,6.6,39.4,9.3c24.2,2.4,55.8,4.1,88,4.8l0,0c32.2,0.7,63.8,0.2,87.9-1.2
			C336.8,106,342.5,101.9,311.5,97.6"/>
		<path class="st51" d="M309.3,97.4c-7.4-2.6-21.3-5.2-39.7-7c-22.3-2.1-48.5-3.1-74.7-3.6c-27.6-0.4-53.9,0-74.7,1.3
			c-25.2,1.5-38.5,4.2-38.5,7.2c-0.1,3.1,13.3,6.3,38.8,8.8c24,2.4,55.4,4,87.3,4.6l0,0c31.9,0.7,63.3,0.2,87.2-1
			C336.1,105.7,341.4,101.6,309.3,97.4"/>
		<path class="st52" d="M307.1,97.3c-7.7-2.4-21.3-4.9-39.3-6.5c-22.1-2-47.9-3-73.6-3.4c-27.1-0.4-53.1,0-73.5,1.2
			c-24.8,1.4-37.9,3.9-38,6.8s13.1,6,38.3,8.4c23.8,2.3,54.9,3.9,86.6,4.5l0,0c31.6,0.6,62.7,0.2,86.5-0.9
			C335.5,105.3,340.2,101.4,307.1,97.3"/>
		<path class="st53" d="M304.8,97.1c-7.9-2.2-21.4-4.5-38.8-6c-21.8-1.9-47.2-2.8-72.4-3.2c-26.7-0.4-52.2-0.1-72.4,1.1
			c-24.5,1.3-37.4,3.7-37.4,6.4c-0.1,2.7,12.9,5.6,37.8,8c23.6,2.2,54.5,3.7,85.8,4.4l0,0c31.3,0.6,62.2,0.3,85.7-0.8
			C334.8,105,339.1,101.1,304.8,97.1"/>
		<path class="st54" d="M302.6,97c-8.2-2.1-21.4-4.2-38.3-5.6c-21.6-1.8-46.5-2.6-71.3-3c-26.2-0.4-51.4-0.1-71.3,1
			c-24.2,1.3-36.8,3.5-36.9,6c-0.1,2.6,12.7,5.3,37.3,7.6c23.4,2.1,54.1,3.6,85.1,4.2l0,0c31,0.6,61.6,0.3,85-0.7
			C334.2,104.7,337.9,100.9,302.6,97"/>
		<path class="st55" d="M300.4,96.9c-8.4-1.9-21.5-3.8-37.8-5.1c-21.3-1.6-45.9-2.5-70.1-2.9c-25.8-0.4-50.5-0.1-70.1,0.9
			C98.5,91,86.1,93,86,95.5c-0.1,2.4,12.5,5,36.7,7.2c23.2,2,53.6,3.5,84.4,4.1l0,0c30.7,0.6,61.1,0.4,84.3-0.6
			C333.5,104.4,336.8,100.6,300.4,96.9"/>
		<path class="st56" d="M298.2,96.7c-12.3-2.3-24.8-3.8-37.3-4.6c-21.1-1.5-45.2-2.3-69-2.7c-25.4-0.4-49.7-0.1-69,0.8
			c-23.6,1.1-35.8,3-35.8,5.3c-0.1,2.3,12.3,4.7,36.2,6.8c23,2,53.2,3.3,83.7,4l0,0c30.4,0.6,60.5,0.4,83.5-0.5
			C332.8,104,335.6,100.4,298.2,96.7"/>
		<path class="st57" d="M296,96.6c-8.9-1.5-21.6-3.1-36.8-4.1c-20.9-1.4-44.6-2.2-67.8-2.5c-24.9-0.4-48.8-0.2-67.8,0.7
			c-23.3,1-35.2,2.8-35.3,4.9c-0.1,2.1,12,4.4,35.7,6.4c22.9,1.9,52.8,3.2,82.9,3.8l0,0c30.1,0.6,60,0.5,82.8-0.4
			C332.2,103.7,334.5,100.1,296,96.6"/>
		<path class="st58" d="M293.7,96.5c-9.2-1.4-21.7-2.7-36.3-3.7c-20.6-1.3-43.9-2-66.7-2.3c-24.5-0.4-48-0.2-66.7,0.6
			c-22.9,0.9-34.7,2.6-34.7,4.5c-0.1,2,11.8,4.1,35.2,6c22.7,1.8,52.4,3.1,82.2,3.7l0,0c29.8,0.6,59.5,0.5,82.1-0.3
			C331.5,103.4,333.3,99.9,293.7,96.5"/>
		<path class="st59" d="M291.5,96.3c-9.4-1.2-21.7-2.4-35.8-3.2c-20.4-1.2-43.2-1.9-65.5-2.2c-24-0.3-47.1-0.2-65.5,0.5
			c-22.6,0.8-34.2,2.3-34.2,4.1c0,1.8,11.6,3.8,34.6,5.6c22.5,1.7,51.9,3,81.5,3.6l0,0c29.5,0.6,58.9,0.6,81.3-0.2
			C330.9,103.2,332.2,99.6,291.5,96.3"/>
		<path class="st60" d="M289.3,96.2c-9.7-1-21.8-2-35.3-2.7c-20.1-1.1-42.6-1.7-64.4-2c-23.6-0.3-46.3-0.2-64.4,0.4
			c-22.3,0.7-33.6,2.1-33.7,3.7c0,1.7,11.4,3.5,34.1,5.2c22.3,1.6,51.5,2.8,80.8,3.4l0,0c29.2,0.6,58.4,0.6,80.6-0.1
			C330.2,102.8,331,99.3,289.3,96.2"/>
		<path class="st61" d="M287.1,96.1c-9.9-0.9-21.8-1.6-34.8-2.3c-19.9-0.9-41.9-1.5-63.3-1.8c-23.2-0.3-45.4-0.2-63.2,0.3
			c-22,0.6-33.1,1.9-33.1,3.4s11.2,3.2,33.6,4.8c22.1,1.5,51.1,2.7,80,3.3l0,0c29,0.6,57.8,0.6,79.9,0
			C329.6,102.5,329.9,99.1,287.1,96.1"/>
		<path class="st62" d="M284.9,95.9C241,93,170.1,91.5,126.4,92.6c-43.6,1.1-43.5,4.4,0.5,7.4c43.8,2.9,114.8,4.4,158.4,3.3
			C328.9,102.1,328.8,98.8,284.9,95.9"/>
	</g>
	<g transform="translate(391.605 -66.222)">
		
			<linearGradient id="SVGID_19_" gradientUnits="userSpaceOnUse" x1="330.6632" y1="39.188" x2="331.4035" y2="39.188" gradientTransform="matrix(131.311 0 0 54.447 -56354.3828 -1954.3308)">
			<stop  offset="0" style="stop-color:#CFCFFF"/>
			<stop  offset="0.354" style="stop-color:#C9B5F9"/>
			<stop  offset="0.748" style="stop-color:#C49FF3"/>
			<stop  offset="1" style="stop-color:#C397F2"/>
		</linearGradient>
		<path class="st70" d="M108.1,155.6L-6,180.5L32.6,203L108.1,155.6z"/>
		
			<linearGradient id="SVGID_20_" gradientUnits="userSpaceOnUse" x1="249.0818" y1="38.5273" x2="249.7543" y2="38.5273" gradientTransform="matrix(73.767 0 0 119.31 -31218.7031 -4389.2065)">
			<stop  offset="0" style="stop-color:#CFCFFF"/>
			<stop  offset="0.354" style="stop-color:#C9B5F9"/>
			<stop  offset="0.748" style="stop-color:#C49FF3"/>
			<stop  offset="1" style="stop-color:#C397F2"/>
		</linearGradient>
		<path class="st71" d="M108.1,155.6L49.4,259.3L44,216.5L108.1,155.6z"/>
		
			<linearGradient id="SVGID_21_" gradientUnits="userSpaceOnUse" x1="290.5154" y1="7.8055" x2="290.7865" y2="7.8672" gradientTransform="matrix(95.478 0 0 73.656 -40702.2383 -2675.4102)">
			<stop  offset="0" style="stop-color:#C397F2"/>
			<stop  offset="0.354" style="stop-color:#C8B0F7"/>
			<stop  offset="0.748" style="stop-color:#CDC6FD"/>
			<stop  offset="1" style="stop-color:#CFCFFF"/>
		</linearGradient>
		<path class="st72" d="M25.1,219.6l7.5-16.7l75.5-47.3L44,216.5L25.1,219.6z"/>
		
			<linearGradient id="SVGID_22_" gradientUnits="userSpaceOnUse" x1="291.8461" y1="38.8706" x2="291.5975" y2="38.8706" gradientTransform="matrix(95.479 0 0 73.656 -40702.6797 -2675.4141)">
			<stop  offset="0" style="stop-color:#C397F2"/>
			<stop  offset="0.354" style="stop-color:#C8B0F7"/>
			<stop  offset="0.748" style="stop-color:#CDC6FD"/>
			<stop  offset="1" style="stop-color:#CFCFFF"/>
		</linearGradient>
		<path class="st73" d="M25.1,219.6l83-64L44,216.5L25.1,219.6z"/>
	</g>
	<g transform="translate(1164.598 119.968)">
		
			<linearGradient id="SVGID_23_" gradientUnits="userSpaceOnUse" x1="-1112.535" y1="38.4054" x2="-1111.6417" y2="37.6024" gradientTransform="matrix(352.396 0 0 226.132 392094.2812 -8286.1055)">
			<stop  offset="0" style="stop-color:#FFDC4F"/>
			<stop  offset="7.200000e-02" style="stop-color:#FDCF55"/>
			<stop  offset="0.378" style="stop-color:#F89C6E"/>
			<stop  offset="0.645" style="stop-color:#F57881"/>
			<stop  offset="0.862" style="stop-color:#F2628C"/>
			<stop  offset="1" style="stop-color:#F25A91"/>
		</linearGradient>
		<rect x="45.7" y="209.5" class="st74" width="306.2" height="196.5"/>
		
			<linearGradient id="SVGID_24_" gradientUnits="userSpaceOnUse" x1="-1114.1299" y1="38.0039" x2="-1114.9988" y2="38.0039" gradientTransform="matrix(176.2 0 0 226.131 196661.5781 -8286.0664)">
			<stop  offset="0" style="stop-color:#FFDC4F"/>
			<stop  offset="7.200000e-02" style="stop-color:#FDCF55"/>
			<stop  offset="0.378" style="stop-color:#F89C6E"/>
			<stop  offset="0.645" style="stop-color:#F57881"/>
			<stop  offset="0.862" style="stop-color:#F2628C"/>
			<stop  offset="1" style="stop-color:#F25A91"/>
		</linearGradient>
		<path class="st75" d="M351.9,406l-153.1-98.2l153.1-98.3V406z"/>
		
			<linearGradient id="SVGID_25_" gradientUnits="userSpaceOnUse" x1="-1114.8677" y1="38.0039" x2="-1113.9988" y2="38.0039" gradientTransform="matrix(176.2 0 0 226.132 196485.375 -8286.1055)">
			<stop  offset="0" style="stop-color:#FFDC4F"/>
			<stop  offset="7.200000e-02" style="stop-color:#FDCF55"/>
			<stop  offset="0.378" style="stop-color:#F89C6E"/>
			<stop  offset="0.645" style="stop-color:#F57881"/>
			<stop  offset="0.862" style="stop-color:#F2628C"/>
			<stop  offset="1" style="stop-color:#F25A91"/>
		</linearGradient>
		<path class="st76" d="M45.7,406V209.5l153.1,98.2L45.7,406z"/>
		
			<linearGradient id="SVGID_26_" gradientUnits="userSpaceOnUse" x1="-1112.5228" y1="38.0344" x2="-1111.6539" y2="38.0344" gradientTransform="matrix(352.4 0 0 113.066 392098.75 -4041.7561)">
			<stop  offset="0" style="stop-color:#5D3BAB"/>
			<stop  offset="0.3" style="stop-color:#664EBB"/>
			<stop  offset="0.727" style="stop-color:#7164CD"/>
			<stop  offset="1" style="stop-color:#766DD4"/>
		</linearGradient>
		<path class="st77" d="M198.8,307.7L45.7,209.5h306.2L198.8,307.7z"/>
		
			<linearGradient id="SVGID_27_" gradientUnits="userSpaceOnUse" x1="-1112.5228" y1="38.1654" x2="-1111.6539" y2="38.1654" gradientTransform="matrix(352.4 0 0 113.064 392098.75 -4154.7417)">
			<stop  offset="0" style="stop-color:#C397F2"/>
			<stop  offset="9.800000e-02" style="stop-color:#B891ED"/>
			<stop  offset="0.485" style="stop-color:#947DDF"/>
			<stop  offset="0.799" style="stop-color:#7E71D7"/>
			<stop  offset="1" style="stop-color:#766DD4"/>
		</linearGradient>
		<path class="st78" d="M198.8,111.2l153.1,98.3H45.7L198.8,111.2z"/>
	</g>
	<g transform="translate(1270.024 193.711)">
		<rect x="31.8" y="101.6" class="st79" width="114.3" height="168.3"/>
		<path class="st80" d="M52.5,128.8L52.5,128.8z"/>
		<path class="st80" d="M52.5,147.6L52.5,147.6z"/>
		<path class="st80" d="M52.5,166.4L52.5,166.4z"/>
		<path class="st80" d="M52.5,185.2L52.5,185.2z"/>
		<path class="st80" d="M52.5,204L52.5,204z"/>
		<path class="st80" d="M96.8,236.8L96.8,236.8z"/>
	</g>
</g>
</svg>
