<svg xmlns="http://www.w3.org/2000/svg" width="29.078" height="23.263" viewBox="0 0 29.078 23.263"><defs><style>.a{fill:#343434;}</style></defs><g transform="translate(-133.922 -12.225)"><g transform="translate(133.922 12.225)"><path class="a" d="M49.273,26.737H21.649a.726.726,0,0,0-.727.727v4.362a.726.726,0,0,0,.727.727h.727v16.72A.726.726,0,0,0,23.1,50H36.188a.726.726,0,0,0,.727-.727V32.553h7.27v16.72a.726.726,0,0,0,.727.727h2.907a.726.726,0,0,0,.727-.727V35.1a.727.727,0,1,0-1.454,0V48.546H45.638V32.553h3.635A.726.726,0,0,0,50,31.826V27.464A.726.726,0,0,0,49.273,26.737ZM35.461,48.546H23.83V44.184H35.461Zm0-5.816H23.83V38.369H35.461Zm0-5.816H23.83V32.553H35.461ZM48.546,31.1H22.376V28.192h26.17Z" transform="translate(-20.922 -26.737)"/><rect class="a" width="2.908" height="1.454" transform="translate(7.27 7.27)"/><rect class="a" width="2.908" height="1.454" transform="translate(7.27 13.086)"/><rect class="a" width="2.908" height="1.454" transform="translate(7.27 18.901)"/><rect class="a" width="26.538" height="4.423" transform="translate(1.192 0.566)"/></g></g></svg>