<svg xmlns="http://www.w3.org/2000/svg" width="29.59" height="21.828" viewBox="0 0 29.59 21.828"><defs><style>.a{fill:#000;}</style></defs><g transform="translate(0 0)"><path class="a" d="M38.687,22.97a5.868,5.868,0,0,0-4.713,9.376,5.054,5.054,0,0,0-2.3,4.1V44.8h1.635V36.444a3.512,3.512,0,0,1,1.83-2.919A5.835,5.835,0,0,0,42.27,33.5a3.522,3.522,0,0,1,1.874,2.947V44.8H45.78V36.444a5.054,5.054,0,0,0-2.352-4.135,5.867,5.867,0,0,0-4.741-9.338Zm0,10.122a4.243,4.243,0,1,1,4.243-4.243A4.247,4.247,0,0,1,38.687,33.092Z" transform="translate(-23.932 -22.97)"/><path class="a" d="M17.211,39.216a1.7,1.7,0,0,1,.759-1.331,3.911,3.911,0,1,0-1.141-1.192,3.288,3.288,0,0,0-1.254,2.523v4.85h1.635ZM20.082,32.5a2.2,2.2,0,1,1-2.2,2.2A2.2,2.2,0,0,1,20.082,32.5Z" transform="translate(-15.576 -27.066)"/><path class="a" d="M66.76,36.667a3.787,3.787,0,0,0,.564-1.972,3.835,3.835,0,1,0-1.692,3.176,1.7,1.7,0,0,1,.78,1.346v4.85h1.635V39.217A3.283,3.283,0,0,0,66.76,36.667Zm-3.268.224a2.2,2.2,0,1,1,2.2-2.2A2.2,2.2,0,0,1,63.492,36.891Z" transform="translate(-38.456 -27.066)"/></g></svg>