<?xml version="1.0" encoding="utf-8"?>
<!-- Generator: Adobe Illustrator 24.3.0, SVG Export Plug-In . SVG Version: 6.00 Build 0)  -->
<svg version="1.1" id="Layer_1" xmlns="http://www.w3.org/2000/svg" xmlns:xlink="http://www.w3.org/1999/xlink" x="0px" y="0px"
	 viewBox="0 0 1643 510.6" style="enable-background:new 0 0 1643 510.6;" xml:space="preserve">
<style type="text/css">
	.st0{fill:#544EF6;}
	.st1{fill:#FFFFFF;}
	.st2{fill:#3A3ACE;}
	.st3{clip-path:url(#SVGID_2_);fill:#544EF6;}
	.st4{clip-path:url(#SVGID_4_);}
</style>
<g>
	<path class="st2" d="M647.9,339.4c0,8.1-8.9,12.9-15.7,8.5l-134.6-87.2l0,0l134.6-87.2c6.8-4.4,15.7,0.5,15.7,8.5V339.4z"/>
	<g>
		<path class="st0" d="M376.3,358.9h171.1c13.6,0,24.7-11,24.7-24.7V187.4c0-13.6-11-24.7-24.7-24.7H376.3
			c-13.6,0-24.7,11-24.7,24.7v146.9C351.6,347.9,362.7,358.9,376.3,358.9z"/>
	</g>
	<g>
		<g>
			<path class="st0" d="M859,228.1c14.9,0,26.7,4.3,35.5,12.8c8.7,8.5,13.1,20.5,13.1,35.8v82.5H858v-73.6c0-5.9-1.3-10.4-3.9-13.5
				c-2.6-3.1-6.2-4.7-10.8-4.7c-5.1,0-9.2,1.8-12.4,5.4c-3.2,3.6-4.8,8.3-4.8,14v72.4h-49.6v-73.6c0-5.9-1.3-10.4-3.9-13.5
				c-2.6-3.1-6.2-4.7-10.8-4.7c-5.1,0-9.2,1.8-12.4,5.4c-3.2,3.6-4.8,8.3-4.8,14v72.4H695V232.5h45.4l1.7,16
				c8.8-13.6,21.3-20.4,37.3-20.4c17.2,0,29.9,6.8,38.3,20.4C827.9,234.9,841.6,228.1,859,228.1z"/>
			<path class="st0" d="M1057,300.9v7.1h-92.5c2.1,14.4,9.9,21.6,23.3,21.6c9.5,0,16.1-3.6,19.9-10.8l46.4,2.9
				c-4.6,13.4-12.6,23.8-24.2,31.2c-11.5,7.4-25.7,11-42.6,11c-22.1,0-39.4-6.2-52-18.6c-12.8-12.3-19.1-28.7-19.1-49.3
				c0-20.3,6.5-36.7,19.6-49.3c12.9-12.4,29.9-18.6,51-18.6c15,0,28.1,3.5,39,10.6c11,7,19,16.1,24,27.2
				C1054.6,276.8,1057,288.5,1057,300.9z M986.3,262.4c-11.5,0-18.6,6.3-21.3,18.9h42C1005.1,268.7,998.3,262.4,986.3,262.4z"/>
			<path class="st0" d="M1200.3,300.9v7.1h-92.5c2.1,14.4,9.9,21.6,23.3,21.6c9.5,0,16.1-3.6,19.9-10.8l46.4,2.9
				c-4.6,13.4-12.6,23.8-24.2,31.2c-11.5,7.4-25.7,11-42.6,11c-22.1,0-39.4-6.2-52-18.6c-12.8-12.3-19.1-28.7-19.1-49.3
				c0-20.3,6.5-36.7,19.6-49.3c12.9-12.4,29.9-18.6,51-18.6c15,0,28.1,3.5,39,10.6c11,7,19,16.1,24,27.2
				C1197.9,276.8,1200.3,288.5,1200.3,300.9z M1129.6,262.4c-11.5,0-18.6,6.3-21.3,18.9h42C1148.4,268.7,1141.6,262.4,1129.6,262.4z
				"/>
			<path class="st0" d="M1291.3,261.9l-23.3-0.5v46.9c0,9.2,4.1,13.7,12.3,13.7h11v37.1h-28.7c-16.7,0-28.2-3.2-34.6-9.6
				c-6.4-6.4-9.6-17.9-9.6-34.6v-53.5l-19.4,0.5v-29.4l19.4,0.5v-38.8h49.6V233l23.3-0.5V261.9z"/>
		</g>
	</g>
	<g>
		<path class="st0" d="M722.6,175.4l3.8-12.3h14.5l-14.5,43.6h-16l-14.9-43.6h15.3l3.5,12.3l4.1,17.1L722.6,175.4z"/>
		<path class="st0" d="M813.1,156.9H811c-1.6,0-2.8,0.4-3.5,1.1c-0.7,0.7-1,1.8-1,3.3v2h6.6v9.2h-6.6v34.2H792v-34.1l-4.8,0.2v-9.6
			l4.8,0.2V161c0-9.6,5.2-14.4,15.7-14.4h5.4V156.9z"/>
		<path class="st0" d="M820.7,163.3V161c0-9.6,5.2-14.4,15.7-14.4h5.4v10.3h-2.1c-1.6,0-2.8,0.4-3.5,1.1c-0.7,0.7-1,1.8-1,3.3v2.1
			l6.6-0.3v9.6l-6.6-0.3v34.2h-14.5v-34.2h-4.8v-9.2H820.7z"/>
		<path class="st0" d="M886.8,208.3c-6.3,0-11.3-1.3-14.9-3.9c-3.6-2.6-5.7-6.3-6.3-11.1l13.6-0.3c0.5,4,3.2,6,8.1,6
			c2.2,0,3.9-0.4,5.2-1.2c1.3-0.8,1.9-2,1.9-3.4c0-2.2-1.8-3.6-5.3-4.1l-7.6-1.1c-9.9-1.4-14.9-5.7-14.9-12.9
			c0-4.6,1.7-8.1,5.2-10.7c3.5-2.6,8.3-3.8,14.3-3.8c5.9,0,10.5,1.2,14,3.6c3.5,2.4,5.5,5.8,6.2,10.2l-13.1,0.3
			c-0.6-3.5-3.1-5.2-7.4-5.2c-1.9,0-3.3,0.4-4.4,1.1c-1.1,0.7-1.6,1.7-1.6,3c0,2.3,1.7,3.6,5,4.1l7.9,1.3
			c10.1,1.5,15.2,5.8,15.2,13.1c0,4.8-1.9,8.6-5.6,11.2C898.6,207,893.4,208.3,886.8,208.3z"/>
		<g>
			<path class="st0" d="M752.9,206.6h20.2c6.2,0,11.1-5,11.1-11.1v-21.2c0-6.2-5-11.1-11.1-11.1h-20.2c-6.2,0-11.1,5-11.1,11.1v21.2
				C741.8,201.6,746.8,206.6,752.9,206.6z"/>
			<path class="st1" d="M760.5,176.3h4.9l2.8,21.1l-5.2,4.8l-5.2-4.8L760.5,176.3z"/>
			<path class="st1" d="M758.6,168.3h8.9l-1.4,4.5c-0.2,0.7-1,1.2-1.8,1.2h-2.4c-0.9,0-1.6-0.5-1.8-1.2L758.6,168.3z"/>
		</g>
		<g>
			<rect x="846.7" y="146.6" class="st0" width="14.5" height="11"/>
			<rect x="846.7" y="163.1" class="st0" width="14.5" height="43.6"/>
		</g>
	</g>
	<path class="st1" d="M451.2,222.5h21.1l12,90.6l-22.4,20.5l-22.4-20.5L451.2,222.5z"/>
	<path class="st1" d="M442.7,188.4H481l-6.2,19.2c-1,3-4.2,5.1-7.9,5.1h-10.1c-3.7,0-6.9-2.1-7.9-5.1L442.7,188.4z"/>
</g>
</svg>
